<svg width="4266.6665" height="2666.6667" xmlns="http://www.w3.org/2000/svg">
 <metadata id="metadata8">image/svg+xml</metadata>

 <g>
  <title>background</title>
  <rect fill="none" id="canvas_background" height="602" width="802" y="-1" x="-1"/>
 </g>
 <g>
  <title>Layer 1</title>
  <g id="g10" transform="matrix(1.4704174406500283,0,0,-1.5726181209208818,-246.00129840692142,3146.428093104076) ">
   <g id="g12" transform="translate(0,2.2737367544323206e-13) scale(0.10000000149011612) ">
    <g id="g14" transform="translate(2.8421709430404007e-13,0) scale(1.963189959526062) ">
     <path fill="#ffffff" fill-rule="nonzero" d="m16300,0l-16300,0l0,10187.5l16300,0l0,-10187.5" id="path16"/>
    </g>
    <g id="g18" transform="translate(2.8421709430404007e-13,0) scale(1.875100016593933) ">
     <path fill="#edf4ff" fill-rule="nonzero" d="m16283.3,3616.34c-10.2,-511.65 -123.9,-1014.08 -302.6,-1491.97c-25.9,-67.73 -168.7,-500.78 -233.7,-500.78c-101.6,-0.05 -203.2,-0.05 -304.8,-0.05c-1126.7,-0.21 -2253.4,-0.37 -3380.1,-0.53c-2220.32,-0.32 -4440.63,-0.64 -6660.94,-0.91c-1314.9,-0.16 -2629.78,-1.01 -3944.67,-0.21c-86.24,0.05 -158.08,111.41 -207.6,170.28c-91.17,108.37 -154.55,231.51 -193.05,362.12c-52.45,177.96 -85.224,441.15 12.16,775.9c52.57,180.74 165.29,362.97 250.59,499.82c183.14,293.85 421.53,546.26 684.77,769.5c302.59,256.58 691.89,492.83 840.93,879.8c220.41,572.15 -157.8,1133.59 -106.18,1710.13c86.05,961.21 1041.17,1679.62 1880.2,2003.93c650.11,251.28 1370.71,312.08 2062.35,290.06c338.44,-10.77 676.39,-44.17 1010.19,-100.92c304.95,-51.85 664.07,-104.85 943.63,-244.65c599.76,-221.94 1118.93,-582.72 1558.92,-1044c213.7,-224.08 403.3,-475.66 636.6,-680.26c278.4,-244.14 563.3,-235.36 909.9,-168.14c659.5,129.38 1303.8,270.37 1972.3,107.79c647.4,-157.46 1203.9,-550.72 1663.4,-1021.91c607.6,-623.14 924.4,-1445.71 907.7,-2315c-0.3,-12.64 0.2,14.03 0.8,40.7c0.8,43.62 1.6,87.19 -0.8,-40.7" id="path20"/>
    </g>
    <path fill="#e1ecfe" fill-rule="nonzero" d="m7339.37,7016.5c0,0 -947.21,234.7 -1319.3,-353.3c-372.09,-588.1 -1116.27,-610.9 -1506.96,-1083.2c-390.7,-472.3 -688.37,-1323.3 204.64,-1744.3c893.02,-421 3114.21,196.9 3114.21,196.9l424.54,2739.7l-917.13,244.2" id="path22"/>
    <path fill="#acd29a" fill-rule="nonzero" d="m8747.21,9665.7c0,0 -126.86,781.7 -796.66,1100.2c-402.05,191.2 -1609.64,333.6 -1572.43,-522.2c29.56,-680 -651.2,-596.8 -384.52,-1387.8c229.62,-681 1010.44,-417 1010.44,-417l1743.17,1226.8" id="path24"/>
    <g id="g26" transform="translate(2.8421709430404007e-13,0) scale(1.8391400575637817) ">
     <path fill="#acd29a" fill-rule="nonzero" d="m15884.2,2764.23c-223.7,178.68 -494.2,174.87 -733.8,171.06c-278.7,-4.4 -515.5,-8.81 -588.1,274.05c-134.9,526.06 -772,565.75 -772,565.75l-650.6,-2120.24c868.2,0.17 1736.3,0.28 2604.5,0.44c103.5,0 207.1,0 310.7,0.05c66.3,0 211.9,441.52 238.2,510.57c2.3,6.25 4.6,12.45 6.9,18.7c-59.3,165.52 -191.1,400.14 -415.8,579.62" id="path28"/>
    </g>
    <g id="g30" transform="translate(2.8421709430404007e-13,0) scale(1.5559699535369873) ">
     <path fill="#98baf4" fill-rule="nonzero" d="m16300,1949.59l-5078.5,0l0,6255.2l5078.5,0l0,-6255.2" id="path32"/>
    </g>
    <g id="g34" transform="translate(2.8421709430404007e-13,0) scale(1.5559699535369873) ">
     <path fill="#edf4ff" fill-rule="nonzero" d="m16300,7217.54l-4572,0l0,681.36l4572,0l0,-681.36" id="path36"/>
    </g>
    <g id="g38" transform="translate(2.8421709430404007e-13,0) scale(1.307669997215271) ">
     <path fill="#ffffff" fill-rule="nonzero" d="m16300,2294.24l-6824.66,0l0,5769.39l6824.66,0l0,-5769.39" id="path40"/>
    </g>
    <g id="g42" transform="translate(2.8421709430404007e-13,0) scale(1.316230058670044) ">
     <path fill="#ffffff" fill-rule="nonzero" d="m16300,8011.16l-7053.99,0l0,208.27l7053.99,0l0,-208.27" id="path44"/>
    </g>
    <g id="g46" transform="translate(2.8421709430404007e-13,0) scale(1.5649700164794922) ">
     <path fill="#ffffff" fill-rule="nonzero" d="m16300,8070.02l-5244.9,0l0,175.16l5244.9,0l0,-175.16" id="path48"/>
    </g>
    <g id="g50" transform="translate(2.8421709430404007e-13,0) scale(1.114400029182434) ">
     <path fill="#ff9e55" fill-rule="nonzero" d="m16300,7591.81l-5181.4,0l0,1258.35l5181.4,0l0,-1258.35" id="path52"/>
    </g>
    <path fill="#afcdfb" fill-rule="nonzero" d="m7004.04,6663.2l5386.56,0l0,2987.6l-5386.56,0l0,-2987.6z" id="path54"/>
    <path fill="#afcdfb" fill-rule="nonzero" d="m7004.04,3054l5386.56,0l0,2987.6l-5386.56,0l0,-2987.6z" id="path56"/>
    <path fill="#7fa8e5" fill-rule="nonzero" d="m12390.6,6041.6l-4639.98,0l0,621.6l4639.98,0l0,-621.6" id="path58"/>
    <path fill="#ffffff" fill-rule="nonzero" d="m13176,9622.1c-122.5,0 -237.8,-47.8 -324.4,-134.4c-86.7,-86.7 -134.4,-201.9 -134.4,-324.5c0,-122.6 47.7,-237.8 134.4,-324.5c86.6,-86.6 201.9,-134.4 324.4,-134.4c122.6,0 237.9,47.8 324.5,134.4c86.7,86.7 134.4,201.9 134.4,324.5c0,122.6 -47.7,237.8 -134.4,324.5c-86.6,86.6 -201.9,134.4 -324.5,134.4zm0,-964.3c-134.9,0 -261.9,52.6 -357.3,148c-95.5,95.5 -148,222.4 -148,357.4c0,135 52.5,261.9 148,357.4c95.4,95.4 222.4,148 357.3,148c135,0 262,-52.6 357.4,-148c95.5,-95.5 148,-222.4 148,-357.4c0,-135 -52.5,-261.9 -148,-357.4c-95.4,-95.4 -222.4,-148 -357.4,-148" id="path60"/>
    <path fill="#ffffff" fill-rule="nonzero" d="m13502.5,9245.6l-244,0l0,244l-164.9,0l0,-244l-244,0l0,-164.8l244,0l0,-244l164.9,0l0,244l244,0l0,164.8" id="path62"/>
    <path fill="#ffffff" fill-rule="nonzero" d="m14082.3,9405.3l107.3,0l0,-193l197.9,0l0,193l107.3,0l0,-487.7l-107.3,0l0,195.8l-197.9,0l0,-195.8l-107.3,0l0,487.7" id="path64"/>
    <path fill="#ffffff" fill-rule="nonzero" d="m14996.5,9161.5c0,83.6 -61.3,153.3 -147.7,153.3c-86.4,0 -146.4,-68.3 -146.4,-153.3c0,-83.6 61.4,-153.3 147.8,-153.3c86.4,0 146.3,68.3 146.3,153.3zm-406.3,0c0,138.6 109.4,252.2 260,252.2c150.5,0 258.5,-112.2 258.5,-252.2c0,-138.7 -109.4,-252.3 -259.9,-252.3c-150.5,0 -258.6,112.2 -258.6,252.3" id="path66"/>
    <path fill="#ffffff" fill-rule="nonzero" d="m15167.2,8988.7l63.4,75.9c43.9,-36.2 89.9,-59.2 145.6,-59.2c43.9,0 70.4,17.4 70.4,47.4c0,27.1 -16.7,41.1 -98.2,62c-98.3,25.1 -161.7,52.2 -161.7,150.5c0,88.5 71.1,147 170.7,147c71.1,0 131.7,-22.3 181.2,-62l-55.7,-80.8c-43.2,29.9 -85.7,48 -126.9,48c-41.1,0 -62.7,-18.8 -62.7,-43.9c0,-32 20.9,-42.5 105.2,-64.1c99,-25.7 154.7,-61.3 154.7,-147.7c0,-96.8 -73.8,-151.2 -179,-151.2c-73.9,0 -148.5,25.8 -207,78.1" id="path68"/>
    <path fill="#ffffff" fill-rule="nonzero" d="m15838.9,9159.4c53.7,0 85,32 85,75.2c0,48.1 -33.4,73.9 -87.1,73.9l-82.9,0l0,-149.1l85,0zm-192.3,245.9l199.3,0c116.4,0 186.7,-68.9 186.7,-170c0,-112.9 -87.8,-171.4 -197.2,-171.4l-81.5,0l0,-146.3l-107.3,0l0,487.7" id="path70"/>
    <path fill="#ffffff" fill-rule="nonzero" d="m16117,9405.3l107.3,0l0,-487.7l-107.3,0l0,487.7" id="path72"/>
    <g id="g74" transform="translate(2.8421709430404007e-13,0) scale(1.0254900455474854) ">
     <path fill="#ffffff" fill-rule="nonzero" d="m16050.7,9075.07l-144.8,0l0,96.44l394.1,0l0,-96.44l-144.7,0l0,-379.13l-104.6,0l0,379.13" id="path76"/>
    </g>
    <g id="g78" transform="translate(2.8421709430404007e-13,0) scale(1.0558500289916992) ">
     <path fill="#ffffff" fill-rule="nonzero" d="m16115.1,8639.23l-61.3,149.83l-61.4,-149.83l122.7,0zm-106.8,271.91l93.7,0l198,-465.22l-106.3,0l-42.2,103.62l-195.4,0l-42.2,-103.62l-103.7,0l198.1,465.22" id="path80"/>
    </g>
    <g id="g82" transform="translate(2.8421709430404007e-13,0) scale(1.0819599628448486) ">
     <path fill="#ffffff" fill-rule="nonzero" d="m15976.1,8692.81l99.1,0l0,-360.64l224.8,0l0,-90.11l-323.9,0l0,450.75" id="path84"/>
    </g>
    <g id="g86" transform="translate(2.8421709430404007e-13,0) scale(1.5559699535369873) ">
     <path fill="#afcdfb" fill-rule="nonzero" d="m16300,4246.87l0,-1526.38l-2312.9,0l0,1526.38l2312.9,0" id="path88"/>
    </g>
    <g id="g90" transform="translate(2.8421709430404007e-13,0) scale(1.5559699535369873) ">
     <path fill="#afcdfb" fill-rule="nonzero" d="m16300,6494.43l0,-1526.4l-2312.9,0l0,1526.4l2312.9,0" id="path92"/>
    </g>
    <g id="g94" transform="translate(2.8421709430404007e-13,0) scale(1.5559699535369873) ">
     <path fill="#afcdfb" fill-rule="nonzero" d="m16300,7261.26l-4523.9,0l0,601.36l4523.9,0l0,-601.36" id="path96"/>
    </g>
    <g id="g98" transform="translate(2.8421709430404007e-13,0) scale(1.307669997215271) ">
     <path fill="#dfebfd" fill-rule="nonzero" d="m9475.34,7991.64l6824.66,-205.81l0,277.8l-6824.66,0l0,-71.99" id="path100"/>
    </g>
    <path fill="#ffffff" fill-rule="nonzero" d="m12390.6,9372.8l-5723.56,0l0,295.8l5723.56,0l0,-295.8" id="path102"/>
    <path fill="#acd29a" fill-rule="nonzero" d="m6658.69,4275c-698.7,-158.7 -885,-725.9 -1327.44,-385.6c-442.44,340.4 -1001.35,113.4 -1303.99,98.6c-302.78,-14.7 -256.26,695.5 -908.32,922.4c-313.81,109.2 -838.73,128.5 -1214.01,112.1c-49.48,-406.9 2.7,-738 74.88,-983c72.18,-244.9 191.03,-475.8 361.98,-679c79.19,-94.1 188.84,-259.8 319.7,-306.6l5115.01,0c256.14,616.7 -419.24,1380 -1117.81,1221.1" id="path104"/>
    <path fill="#f8fcff" fill-rule="nonzero" d="m4796.65,13909.2c0,0 473.22,555.5 1604.82,493.7c0,0 1642.88,925.9 3394.8,123.5c0,0 1862.33,198.8 3241.43,-172.2c919.5,-247.3 1223.3,-506.8 1223.3,-506.8l-9464.35,61.8" id="path106"/>
    <path fill="#f8fcff" fill-rule="nonzero" d="m14995.6,14590.5c0,201.4 163.3,364.6 364.6,364.6c201.4,0 364.6,-163.2 364.6,-364.6c0,-201.3 -163.2,-364.6 -364.6,-364.6c-201.3,0 -364.6,163.3 -364.6,364.6" id="path108"/>
    <path fill="#f8fcff" fill-rule="nonzero" d="m10257.7,12280.6c0,0 259.2,304.2 879,270.4c0,0 899.9,507.2 1859.4,67.6c0,0 1020,108.9 1775.4,-94.2c503.7,-135.5 670,-277.6 670,-277.6l-5183.8,33.8" id="path110"/>
    <g id="g112" transform="translate(2.8421709430404007e-13,0) scale(1.2300900220870972) ">
     <path fill="#98baf4" fill-rule="nonzero" d="m16300,2502.18l-5098,0l0,2663.15l5098,0l0,-2663.15" id="path114"/>
    </g>
    <g id="g116" transform="translate(2.8421709430404007e-13,0) scale(1.218940019607544) ">
     <path fill="#ffffff" fill-rule="nonzero" d="m16300,2516.03l-4822.7,0l0,2508.56l4822.7,0l0,-2508.56" id="path118"/>
    </g>
    <g id="g120" transform="translate(2.8421709430404007e-13,0) scale(1.2060199975967407) ">
     <path fill="#afcdfb" fill-rule="nonzero" d="m16300,4918.08l0,-582.57l-4515.1,0l0,582.57l4515.1,0" id="path122"/>
    </g>
    <path fill="#afcdfb" fill-rule="nonzero" d="m15805.1,5037.9l0,-1957.9l-1592.3,0l0,1957.9l1592.3,0" id="path124"/>
    <g id="g126" transform="translate(2.8421709430404007e-13,0) scale(1.0990400314331055) ">
     <path fill="#afcdfb" fill-rule="nonzero" d="m16300,4583.93l0,-1781.48l-1781.3,0l0,1781.48l1781.3,0" id="path128"/>
    </g>
    <g id="g130" transform="translate(2.8421709430404007e-13,0) scale(1.2060199975967407) ">
     <path fill="#afcdfb" fill-rule="nonzero" d="m16300,4177.3l0,-1623.44l-1334.3,0l0,1623.44l1334.3,0" id="path132"/>
    </g>
    <g id="g134" transform="translate(2.8421709430404007e-13,0) scale(1.0990400314331055) ">
     <path fill="#cce1ff" fill-rule="nonzero" d="m15102.4,4583.93l1197.6,0l0,-659.31l-213.5,-1122.17l-1323,0l338.9,1781.48" id="path136"/>
    </g>
    <g id="g138" transform="translate(2.8421709430404007e-13,0) scale(1.084529995918274) ">
     <path fill="#ffffff" fill-rule="nonzero" d="m16300,2838.01l-1350.4,0l0,1463.68l1350.4,0l0,-1463.68" id="path140"/>
    </g>
    <g id="g142" transform="translate(2.8421709430404007e-13,0) scale(1.0802500247955322) ">
     <path fill="#98baf4" fill-rule="nonzero" d="m16300,2849.26l-1226.5,0l0,1403.11l1226.5,0l0,-1403.11" id="path144"/>
    </g>
    <g id="g146" transform="translate(2.8421709430404007e-13,0) scale(1.0411200523376465) ">
     <path fill="#ffffff" fill-rule="nonzero" d="m16300,2956.35l-47.3,0l0,1455.84l47.3,0l0,-1455.84" id="path148"/>
    </g>
    <g id="g150" transform="translate(2.8421709430404007e-13,0) scale(1.034690022468567) ">
     <path fill="#ffffff" fill-rule="nonzero" d="m16239.5,3707.11c0,16.72 13.5,30.25 30.2,30.25c16.8,0 30.3,-13.53 30.3,-30.25c0,-16.72 -13.5,-30.25 -30.3,-30.25c-16.7,0 -30.2,13.53 -30.2,30.25" id="path152"/>
    </g>
    <g id="g154" transform="translate(2.8421709430404007e-13,0) scale(1.048359990119934) ">
     <path fill="#ffffff" fill-rule="nonzero" d="m16240.3,3658.75c0,16.51 13.3,29.86 29.8,29.86c16.5,0 29.9,-13.35 29.9,-29.86c0,-16.5 -13.4,-29.85 -29.9,-29.85c-16.5,0 -29.8,13.35 -29.8,29.85" id="path156"/>
    </g>
    <path fill="#cce1ff" fill-rule="nonzero" d="m14719.3,5037.9l806.2,0l-257.3,-1957.9l-806.2,0l257.3,1957.9" id="path158"/>
    <path fill="#cce1ff" fill-rule="nonzero" d="m15642.9,5931.3l-92.3,-702.6l-806.2,0l92.3,702.6l806.2,0" id="path160"/>
    <g id="g162" transform="translate(2.8421709430404007e-13,0) scale(1.1801199913024902) ">
     <path fill="#cce1ff" fill-rule="nonzero" d="m15616.9,4268.96l683.1,0l-218,-1659.06l-683.2,0l218.1,1659.06" id="path164"/>
    </g>
    <g id="g166" transform="translate(2.8421709430404007e-13,0) scale(1.1873300075531006) ">
     <path fill="#cce1ff" fill-rule="nonzero" d="m16300,4995.51l-77.8,-591.75l-679,0l77.8,591.75l679,0" id="path168"/>
    </g>
    <g id="g170" transform="translate(2.8421709430404007e-13,0) scale(1.1179200410842896) ">
     <path fill="#cce1ff" fill-rule="nonzero" d="m16300,5305.66l-119.6,-628.49l-1300.7,0l119.6,628.49l1300.7,0" id="path172"/>
    </g>
    <g id="g174" transform="translate(2.8421709430404007e-13,0) scale(1.1075600385665894) ">
     <path fill="#cce1ff" fill-rule="nonzero" d="m16297.3,4418.37l2.7,0l-2.7,-14.09l0,14.09" id="path176"/>
    </g>
    <path fill="#acd29a" fill-rule="nonzero" d="m13337.9,3079.1c0,0 -38.8,342.6 308.5,429.4c347.3,86.8 483.6,396.9 886.8,136.4c403.2,-260.4 275.6,-565.8 275.6,-565.8l-1470.9,0" id="path178"/>
    <g id="g180" transform="translate(2.8421709430404007e-13,0) scale(1.4703400135040283) ">
     <path fill="#bdd7fd" fill-rule="nonzero" d="m15945.7,5257.37l-809.9,0l354.3,1615.26l809.9,0l-354.3,-1615.26" id="path182"/>
    </g>
    <g id="g184" transform="translate(2.8421709430404007e-13,0) scale(1.5350600481033325) ">
     <path fill="#cce1ff" fill-rule="nonzero" d="m15960.7,2757.54l-775.8,0l339.4,1547.17l775.7,0l-339.3,-1547.17" id="path186"/>
    </g>
    <g id="g188" transform="translate(2.8421709430404007e-13,0) scale(1.399209976196289) ">
     <path fill="#cce1ff" fill-rule="nonzero" d="m16300,4722.67l-372.3,-1697.39l-373.6,0l0,1697.39l745.9,0" id="path190"/>
    </g>
    <g id="g192" transform="translate(2.8421709430404007e-13,0) scale(1.5559699535369873) ">
     <path fill="#cce1ff" fill-rule="nonzero" d="m16300,6494.43l0,-1526.4l-841.3,0l373.7,1526.4l467.6,0" id="path194"/>
    </g>
    <g id="g196" transform="translate(2.8421709430404007e-13,0) scale(1.2359600067138672) ">
     <path fill="#edf4ff" fill-rule="nonzero" d="m16300,9141.29l-80.3,0l0,757.06l80.3,0l0,-757.06" id="path198"/>
    </g>
    <g id="g200" transform="translate(2.8421709430404007e-13,0) scale(1.3588500022888184) ">
     <path fill="#edf4ff" fill-rule="nonzero" d="m16300,8314.59l-73,0l0,688.59l73,0l0,-688.59" id="path202"/>
    </g>
    <g id="g204" transform="translate(2.8421709430404007e-13,0) scale(1.4787100553512573) ">
     <path fill="#edf4ff" fill-rule="nonzero" d="m16300,7640.67l-67.1,0l0,632.78l67.1,0l0,-632.78" id="path206"/>
    </g>
    <path fill="#a3c3f7" fill-rule="nonzero" d="m8195.81,7666.9l-245.26,0l0,237.6l245.26,0l0,-237.6m-290.77,0l-245.26,0l0,237.6l245.26,0l0,-237.6m290.77,283.1l-245.26,0l0,268l245.26,0l0,-268m-290.77,0l-245.26,0l0,268l245.26,0l0,-268m290.77,313.5l-245.26,0l0,284.6l245.26,0l0,-284.6m-290.77,0l-245.26,0l0,284.6l245.26,0l0,-284.6" id="path208"/>
    <path fill="#d7e6fd" fill-rule="nonzero" d="m8256.5,7606.3l-657.4,0l0,1002.5l657.4,0l0,-1002.5m-351.46,60.6l0,-30.3l45.51,0l0,30.3l245.26,0l0,237.6l7.59,0l0,45.5l-7.59,0l0,268l7.59,0l0,45.5l-7.59,0l0,284.6l-245.26,0l0,34.8l-45.51,0l0,-34.8l-245.26,0l0,-284.6l-7.58,0l0,-45.5l7.58,0l0,-268l-7.58,0l0,-45.5l7.58,0l0,-237.6l245.26,0" id="path210"/>
    <path fill="#d7e6fd" fill-rule="nonzero" d="m8203.4,8218l-252.85,0l0,45.5l252.85,0l0,-45.5m-298.36,0l-245.26,0l-7.58,0l0,45.5l7.58,0l245.26,0l0,-45.5" id="path212"/>
    <path fill="#d7e6fd" fill-rule="nonzero" d="m8203.4,7904.5l-252.85,0l0,45.5l252.85,0l0,-45.5m-298.36,0l-245.26,0l-7.58,0l0,45.5l7.58,0l245.26,0l0,-45.5" id="path214"/>
    <path fill="#d7e6fd" fill-rule="nonzero" d="m7950.55,7636.6l-45.51,0l0,946.3l45.51,0l0,-34.8l0,-284.6l0,-45.5l0,-268l0,-45.5l0,-237.6l0,-30.3" id="path216"/>
    <path fill="#a3c3f7" fill-rule="nonzero" d="m9918.79,7666.9l-245.25,0l0,237.6l245.25,0l0,-237.6m-290.77,0l-245.25,0l0,237.6l245.25,0l0,-237.6m290.77,283.1l-245.25,0l0,268l245.25,0l0,-268m-290.77,0l-245.25,0l0,268l245.25,0l0,-268m290.77,313.5l-245.25,0l0,284.6l245.25,0l0,-284.6m-290.77,0l-245.25,0l0,284.6l245.25,0l0,-284.6" id="path218"/>
    <path fill="#d7e6fd" fill-rule="nonzero" d="m9979.48,7606.3l-657.4,0l0,1002.5l657.4,0l0,-1002.5m-351.46,60.6l0,-30.3l45.52,0l0,30.3l245.25,0l0,237.6l7.59,0l0,45.5l-7.59,0l0,268l7.59,0l0,45.5l-7.59,0l0,284.6l-245.25,0l0,34.8l-45.52,0l0,-34.8l-245.25,0l0,-284.6l-7.59,0l0,-45.5l7.59,0l0,-268l-7.59,0l0,-45.5l7.59,0l0,-237.6l245.25,0" id="path220"/>
    <path fill="#d7e6fd" fill-rule="nonzero" d="m9926.38,8218l-252.84,0l0,45.5l252.84,0l0,-45.5m-298.36,0l-245.25,0l-7.59,0l0,45.5l7.59,0l245.25,0l0,-45.5" id="path222"/>
    <path fill="#d7e6fd" fill-rule="nonzero" d="m9926.38,7904.5l-252.84,0l0,45.5l252.84,0l0,-45.5m-298.36,0l-245.25,0l-7.59,0l0,45.5l7.59,0l245.25,0l0,-45.5" id="path224"/>
    <path fill="#d7e6fd" fill-rule="nonzero" d="m9673.54,7636.6l-45.52,0l0,946.3l45.52,0l0,-34.8l0,-284.6l0,-45.5l0,-268l0,-45.5l0,-237.6l0,-30.3" id="path226"/>
    <path fill="#a3c3f7" fill-rule="nonzero" d="m11641.8,7666.9l-245.3,0l0,237.6l245.3,0l0,-237.6m-290.8,0l-245.3,0l0,237.6l245.3,0l0,-237.6m290.8,283.1l-245.3,0l0,268l245.3,0l0,-268m-290.8,0l-245.3,0l0,268l245.3,0l0,-268m290.8,313.5l-245.3,0l0,284.6l245.3,0l0,-284.6m-290.8,0l-245.3,0l0,284.6l245.3,0l0,-284.6" id="path228"/>
    <path fill="#d7e6fd" fill-rule="nonzero" d="m11702.5,7606.3l-657.4,0l0,1002.5l657.4,0l0,-1002.5m-351.5,60.6l0,-30.3l45.5,0l0,30.3l245.3,0l0,237.6l7.6,0l0,45.5l-7.6,0l0,268l7.6,0l0,45.5l-7.6,0l0,284.6l-245.3,0l0,34.8l-45.5,0l0,-34.8l-245.3,0l0,-284.6l-7.5,0l0,-45.5l7.5,0l0,-268l-7.5,0l0,-45.5l7.5,0l0,-237.6l245.3,0" id="path230"/>
    <path fill="#d7e6fd" fill-rule="nonzero" d="m11649.4,8218l-252.9,0l0,45.5l252.9,0l0,-45.5m-298.4,0l-245.3,0l-7.5,0l0,45.5l7.5,0l245.3,0l0,-45.5" id="path232"/>
    <path fill="#d7e6fd" fill-rule="nonzero" d="m11649.4,7904.5l-252.9,0l0,45.5l252.9,0l0,-45.5m-298.4,0l-245.3,0l-7.5,0l0,45.5l7.5,0l245.3,0l0,-45.5" id="path234"/>
    <path fill="#d7e6fd" fill-rule="nonzero" d="m11396.5,7636.6l-45.5,0l0,946.3l45.5,0l0,-34.8l0,-284.6l0,-45.5l0,-268l0,-45.5l0,-237.6l0,-30.3" id="path236"/>
    <path fill="#a3c3f7" fill-rule="nonzero" d="m8195.81,4437.4l-245.26,0l0,237.6l245.26,0l0,-237.6m-290.77,0l-245.26,0l0,237.6l245.26,0l0,-237.6m290.77,283.1l-245.26,0l0,267.9l245.26,0l0,-267.9m-290.77,0l-245.26,0l0,267.9l245.26,0l0,-267.9m290.77,313.4l-245.26,0l0,284.7l245.26,0l0,-284.7m-290.77,0l-245.26,0l0,284.7l245.26,0l0,-284.7" id="path238"/>
    <path fill="#d7e6fd" fill-rule="nonzero" d="m8256.5,4376.7l-657.4,0l0,1002.6l657.4,0l0,-1002.6m-351.46,60.7l0,-30.4l45.51,0l0,30.4l245.26,0l0,237.6l7.59,0l0,45.5l-7.59,0l0,267.9l7.59,0l0,45.5l-7.59,0l0,284.7l-245.26,0l0,34.7l-45.51,0l0,-34.7l-245.26,0l0,-284.7l-7.58,0l0,-45.5l7.58,0l0,-267.9l-7.58,0l0,-45.5l7.58,0l0,-237.6l245.26,0" id="path240"/>
    <path fill="#d7e6fd" fill-rule="nonzero" d="m8203.4,4988.4l-252.85,0l0,45.5l252.85,0l0,-45.5m-298.36,0l-245.26,0l-7.58,0l0,45.5l7.58,0l245.26,0l0,-45.5" id="path242"/>
    <path fill="#d7e6fd" fill-rule="nonzero" d="m8203.4,4675l-252.85,0l0,45.5l252.85,0l0,-45.5m-298.36,0l-245.26,0l-7.58,0l0,45.5l7.58,0l245.26,0l0,-45.5" id="path244"/>
    <path fill="#d7e6fd" fill-rule="nonzero" d="m7950.55,4407l-45.51,0l0,946.3l45.51,0l0,-34.7l0,-284.7l0,-45.5l0,-267.9l0,-45.5l0,-237.6l0,-30.4" id="path246"/>
    <path fill="#a3c3f7" fill-rule="nonzero" d="m9918.79,4437.4l-245.25,0l0,237.6l245.25,0l0,-237.6m-290.77,0l-245.25,0l0,237.6l245.25,0l0,-237.6m290.77,283.1l-245.25,0l0,267.9l245.25,0l0,-267.9m-290.77,0l-245.25,0l0,267.9l245.25,0l0,-267.9m290.77,313.4l-245.25,0l0,284.7l245.25,0l0,-284.7m-290.77,0l-245.25,0l0,284.7l245.25,0l0,-284.7" id="path248"/>
    <path fill="#d7e6fd" fill-rule="nonzero" d="m9979.48,4376.7l-657.4,0l0,1002.6l657.4,0l0,-1002.6m-351.46,60.7l0,-30.4l45.52,0l0,30.4l245.25,0l0,237.6l7.59,0l0,45.5l-7.59,0l0,267.9l7.59,0l0,45.5l-7.59,0l0,284.7l-245.25,0l0,34.7l-45.52,0l0,-34.7l-245.25,0l0,-284.7l-7.59,0l0,-45.5l7.59,0l0,-267.9l-7.59,0l0,-45.5l7.59,0l0,-237.6l245.25,0" id="path250"/>
    <path fill="#d7e6fd" fill-rule="nonzero" d="m9926.38,4988.4l-252.84,0l0,45.5l252.84,0l0,-45.5m-298.36,0l-245.25,0l-7.59,0l0,45.5l7.59,0l245.25,0l0,-45.5" id="path252"/>
    <path fill="#d7e6fd" fill-rule="nonzero" d="m9926.38,4675l-252.84,0l0,45.5l252.84,0l0,-45.5m-298.36,0l-245.25,0l-7.59,0l0,45.5l7.59,0l245.25,0l0,-45.5" id="path254"/>
    <path fill="#d7e6fd" fill-rule="nonzero" d="m9673.54,4407l-45.52,0l0,946.3l45.52,0l0,-34.7l0,-284.7l0,-45.5l0,-267.9l0,-45.5l0,-237.6l0,-30.4" id="path256"/>
    <path fill="#a3c3f7" fill-rule="nonzero" d="m11641.8,4437.4l-245.3,0l0,237.6l245.3,0l0,-237.6m-290.8,0l-245.3,0l0,237.6l245.3,0l0,-237.6m290.8,283.1l-245.3,0l0,267.9l245.3,0l0,-267.9m-290.8,0l-245.3,0l0,267.9l245.3,0l0,-267.9m290.8,313.4l-245.3,0l0,284.7l245.3,0l0,-284.7m-290.8,0l-245.3,0l0,284.7l245.3,0l0,-284.7" id="path258"/>
    <path fill="#d7e6fd" fill-rule="nonzero" d="m11702.5,4376.7l-657.4,0l0,1002.6l657.4,0l0,-1002.6m-351.5,60.7l0,-30.4l45.5,0l0,30.4l245.3,0l0,237.6l7.6,0l0,45.5l-7.6,0l0,267.9l7.6,0l0,45.5l-7.6,0l0,284.7l-245.3,0l0,34.7l-45.5,0l0,-34.7l-245.3,0l0,-284.7l-7.5,0l0,-45.5l7.5,0l0,-267.9l-7.5,0l0,-45.5l7.5,0l0,-237.6l245.3,0" id="path260"/>
    <path fill="#d7e6fd" fill-rule="nonzero" d="m11649.4,4988.4l-252.9,0l0,45.5l252.9,0l0,-45.5m-298.4,0l-245.3,0l-7.5,0l0,45.5l7.5,0l245.3,0l0,-45.5" id="path262"/>
    <path fill="#d7e6fd" fill-rule="nonzero" d="m11649.4,4675l-252.9,0l0,45.5l252.9,0l0,-45.5m-298.4,0l-245.3,0l-7.5,0l0,45.5l7.5,0l245.3,0l0,-45.5" id="path264"/>
    <path fill="#d7e6fd" fill-rule="nonzero" d="m11396.5,4407l-45.5,0l0,946.3l45.5,0l0,-34.7l0,-284.7l0,-45.5l0,-267.9l0,-45.5l0,-237.6l0,-30.4" id="path266"/>
    <g id="g268" transform="translate(2.8421709430404007e-13,0) scale(1.323799967765808) ">
     <path fill="#dfebfd" fill-rule="nonzero" d="m16300,5300.26l-7044.93,0l0,247.92l7044.93,0l0,-247.92" id="path270"/>
    </g>
    <path fill="#acd29a" fill-rule="nonzero" d="m9183.73,9668.6c0,0 161.25,524.7 558.16,512.7c396.91,-12 520.91,-377.3 657.41,-318.7c136.4,58.6 533.3,24.8 558.2,-194l-1773.77,0" id="path272"/>
    <g id="g274" transform="translate(2.8421709430404007e-13,0) scale(1.723140001296997) ">
     <path fill="#233862" fill-rule="nonzero" d="m16300,2835.69l0,-129.06c0,-11.44 -2.7,-22.52 -7.6,-32.27c-11.8,-23.68 -36.6,-39.99 -64.7,-39.99l-23.2,0c-39.6,0 -72.2,32.45 -72.2,72.26l0,129.06c0,13.58 3.9,26.23 10.5,37.09l0,0.17c12.8,21.01 35.7,35 61.7,35l23.2,0c39.8,0 72.3,-32.62 72.3,-72.26" id="path276"/>
    </g>
    <g id="g278" transform="translate(2.8421709430404007e-13,0) scale(1.7223399877548218) ">
     <path fill="#233862" fill-rule="nonzero" d="m16235.3,2635.6l-23.2,0c-39.7,0 -72.3,32.46 -72.3,72.29l0,129.13c0,13.58 3.9,26.24 10.5,37.1c1.4,-7.96 32.1,-185.1 149.7,-198.51c-11.8,-23.69 -36.6,-40.01 -64.7,-40.01" id="path280"/>
    </g>
    <g id="g282" transform="translate(2.8421709430404007e-13,0) scale(1.6397600173950195) ">
     <path fill="#172944" fill-rule="nonzero" d="m15924.5,1987.43l375.5,0l0,378.95l-391.8,0l16.3,-378.95" id="path284"/>
    </g>
    <g id="g286" transform="translate(2.8421709430404007e-13,0) scale(1.7210999727249146) ">
     <path fill="#ffffff" fill-rule="nonzero" d="m16300,2656.73l-1757.7,-43.34l0,926.85l1154.2,0c110.1,0 210.8,-61.59 261,-159.49l75.6,-147.41l266.9,-576.61" id="path288"/>
    </g>
    <g id="g290" transform="translate(2.8421709430404007e-13,0) scale(1.6444200277328491) ">
     <path fill="#233862" fill-rule="nonzero" d="m16015,2043.27c0,-102.59 52.9,-215.76 52.9,-215.76c0,0 78.7,0 89.6,0c78.7,0 142.5,96.63 142.5,215.76c0,119.13 -153.4,215.76 -232.1,215.76c-78.7,0 -52.9,-96.63 -52.9,-215.76" id="path292"/>
    </g>
    <g id="g294" transform="translate(2.8421709430404007e-13,0) scale(1.635390043258667) ">
     <path fill="#2b478b" fill-rule="nonzero" d="m16013.4,2054.56c0,-119.79 64.1,-216.95 143.3,-216.95c79.1,0 143.3,97.16 143.3,216.95c0,119.79 -64.2,216.95 -143.3,216.95c-79.2,0 -143.3,-97.16 -143.3,-216.95" id="path296"/>
    </g>
    <g id="g298" transform="translate(2.8421709430404007e-13,0) scale(1.6320199966430664) ">
     <path fill="#afcdfb" fill-rule="nonzero" d="m16083.7,2058.8c0,-90.44 48.4,-163.72 108.2,-163.72c59.7,0 108.1,73.28 108.1,163.72c0,90.44 -48.4,163.72 -108.1,163.72c-59.8,0 -108.2,-73.28 -108.2,-163.72" id="path300"/>
    </g>
    <g id="g302" transform="translate(2.8421709430404007e-13,0) scale(1.7483400106430054) ">
     <path fill="#233862" fill-rule="nonzero" d="m16031.9,1921.83c0,-96.5 49.8,-202.94 49.8,-202.94c0,0 74,0 84.2,0c74,0 134.1,90.89 134.1,202.94c0,112.05 -144.3,202.93 -218.3,202.93c-74,0 -49.8,-90.88 -49.8,-202.93" id="path304"/>
    </g>
    <g id="g306" transform="translate(2.8421709430404007e-13,0) scale(1.7392899990081787) ">
     <path fill="#2b478b" fill-rule="nonzero" d="m16030.6,1931.82c0,-112.63 60.3,-203.99 134.7,-203.99c74.4,0 134.7,91.36 134.7,203.99c0,112.63 -60.3,203.99 -134.7,203.99c-74.4,0 -134.7,-91.36 -134.7,-203.99" id="path308"/>
    </g>
    <g id="g310" transform="translate(2.8421709430404007e-13,0) scale(1.5097099542617798) ">
     <path fill="#233862" fill-rule="nonzero" d="m15989.6,2225.6c0,-111.74 57.6,-235.01 57.6,-235.01c0,0 85.7,0 97.6,0c85.7,0 155.2,105.25 155.2,235.01c0,129.76 -167.1,235.01 -252.8,235.01c-85.7,0 -57.6,-105.25 -57.6,-235.01" id="path312"/>
    </g>
    <g id="g314" transform="translate(2.8421709430404007e-13,0) scale(1.5006699562072754) ">
     <path fill="#2b478b" fill-rule="nonzero" d="m15987.7,2239c0,-130.54 69.9,-236.43 156.2,-236.43c86.2,0 156.1,105.89 156.1,236.43c0,130.54 -69.9,236.43 -156.1,236.43c-86.3,0 -156.2,-105.89 -156.2,-236.43" id="path316"/>
    </g>
    <g id="g318" transform="translate(2.8421709430404007e-13,0) scale(1.7626700401306152) ">
     <path fill="#ffffff" fill-rule="nonzero" d="m16299.8,2001.17c0.2,-84.13 -68,-152.32 -152,-152.32l-984.4,0c2.9,16.5 4.4,33.64 4.4,51.28c0,130.14 -78.1,235.72 -174.2,235.72c-96.3,0 -174.4,-105.58 -174.4,-235.72c0,-17.64 1.3,-34.78 4.2,-51.28l-575.2,0c0,0 -23.2,256.82 -20.3,385.6c2.2,112.11 2.2,331.72 -4.4,385.27c0,8 554.7,8.91 694.7,9.47c19,0.23 30.4,0.23 31.5,0.23l1.9,-1.36l2.1,-1.47c25.9,-18.1 170.6,-119.54 260.4,-178.99c79.2,-52.26 664,-73.53 893.3,-79.94c57,-1.53 92.1,-2.1 92.1,-2.1c0,0 31.3,-32.11 59.1,-82.83c21.3,-39.31 40.3,-89.86 40.7,-145.12c0.1,-34.44 0.3,-75.85 0.3,-116.47c0.2,-6.64 0.2,-13.27 0.2,-19.97" id="path320"/>
    </g>
    <g id="g322" transform="translate(2.8421709430404007e-13,0) scale(1.712030053138733) ">
     <path fill="#98baf4" fill-rule="nonzero" d="m16243.9,2707.19l-794.1,0c-18.4,0 -35,10.75 -42.7,27.4l-196.5,437.32c-6.5,14.25 4.1,30.49 19.7,30.49l837.8,0c18.3,0 35.2,-10.93 42.6,-27.98l140.8,-321.72l35.2,-80.38c13.3,-30.72 -9.2,-65.13 -42.8,-65.13" id="path324"/>
    </g>
    <g id="g326" transform="translate(2.8421709430404007e-13,0) scale(1.6674699783325195) ">
     <path fill="#dfebfd" fill-rule="nonzero" d="m16298.1,2136.53c-0.1,-14.1 -0.7,-27.35 -1.5,-39.16c-5.8,-78.15 -84.3,-142.97 -84.3,-142.97l-183.2,0c3,17.51 4.6,35.56 4.6,54.21c0,46.78 -9.6,90.56 -26.1,127.92c-32.3,72.68 -90.9,121.32 -158,121.32c-67.3,0 -125.9,-48.64 -158.3,-121.32c-16.4,-37.36 -26.1,-81.14 -26.1,-127.92c0,-18.65 1.5,-36.7 4.5,-54.21l-659.7,0l0,1699.63l529.6,0l2.5,-316.7c0,0 8.9,-47.5 27,-89.9c16.2,-37.9 37.7,-88.34 61.1,-143.27c48.2,-112.57 104.5,-243.96 139.7,-324.86c17.6,-40.96 30.1,-68.85 33.3,-74.91c9.9,-18.83 156.8,-98.47 281.1,-169.12c30.9,-17.63 60.6,-34.72 86.2,-50.07c36.6,-22.07 65.2,-40.66 78.7,-52.9c33.9,-30.52 50.8,-189.2 48.9,-295.77" id="path328"/>
    </g>
    <g id="g330" transform="translate(2.8421709430404007e-13,0) scale(1.7517999410629272) ">
     <path fill="#ffffff" fill-rule="nonzero" d="m16300,2380.23l-919.8,0l-335.8,264.13l-2,1.37l927.9,0l264.1,-212.58l65.6,-52.92" id="path332"/>
    </g>
    <g id="g334" transform="translate(2.8421709430404007e-13,0) scale(1.6657500267028809) ">
     <path fill="#a8302d" fill-rule="nonzero" d="m16300,2339.97l-87.5,8.64c-30.5,3.01 -55.3,25.94 -60.7,56.08l-20.1,110.58c-0.3,1.8 -0.6,3.42 -0.3,5.22c62.3,-35.78 114.8,-67.78 134.6,-85.67c14.5,-13.02 26,-49.23 34,-94.85" id="path336"/>
    </g>
    <g id="g338" transform="translate(2.8421709430404007e-13,0) scale(1.6929199695587158) ">
     <path fill="#ffffff" fill-rule="nonzero" d="m16300,3287.16l-991.5,0c0,0 -3.9,63.44 -28.7,135.92c-22.2,63.97 -60.5,135.39 -127.5,176.09l810.2,0c132.1,0 249.1,-70.53 295.7,-176.09c2.2,-4.37 4.1,-8.74 5.7,-13.11c13.9,-36.69 26.5,-77.68 36.1,-122.81" id="path340"/>
    </g>
    <g id="g342" transform="translate(2.8421709430404007e-13,0) scale(1.6657700538635254) ">
     <path fill="#a2c2dd" fill-rule="nonzero" d="m16300,2339.94l-87.6,8.65c-30.6,3 -55.3,25.93 -60.7,56.07l-20.2,110.58c-0.3,1.8 -0.5,3.6 -0.3,5.4c62.3,-35.96 114.8,-67.95 134.6,-85.84c14.5,-13.03 26,-49.23 34.2,-94.86" id="path344"/>
    </g>
    <g id="g346" transform="translate(2.8421709430404007e-13,0) scale(1.7626700401306152) ">
     <path fill="#233862" fill-rule="nonzero" d="m16299.8,2001.17c0.2,-84.13 -71.2,-152.32 -159.4,-152.32l-977,0c2.9,16.5 4.4,33.64 4.4,51.28c0,44.25 -9.1,85.67 -24.7,121.01l1156.5,0c0.2,-6.64 0.2,-13.27 0.2,-19.97" id="path348"/>
    </g>
    <g id="g350" transform="translate(2.8421709430404007e-13,0) scale(1.6052099466323853) ">
     <path fill="#233862" fill-rule="nonzero" d="m16272.9,2086.52c0,-19.38 1.4,-38.19 4.5,-56.32l-685.2,0l0,189.2l707.8,0c-17.1,-38.81 -27.1,-84.29 -27.1,-132.88" id="path352"/>
    </g>
    <g id="g354" transform="translate(2.8421709430404007e-13,0) scale(1.7357499599456787) ">
     <path fill="#233862" fill-rule="nonzero" d="m15899,2394.69l379.6,0c12.1,0 21.4,-16.36 19.6,-34.51l-13.5,-131.93c-2,-19.35 -13,-33.7 -26.1,-33.7l-312.7,0c-20,0 -37.7,19.88 -43.5,48.85l-22.6,112.17c-3.9,19.48 5.7,39.12 19.2,39.12" id="path356"/>
    </g>
    <g id="g358" transform="translate(2.8421709430404007e-13,0) scale(1.7069400548934937) ">
     <path fill="#afcdfb" fill-rule="nonzero" d="m16300,2861.21c-455.3,23.37 -763.3,266.96 -856.3,350.74l672.3,0c18.4,0 35.3,-10.96 42.8,-28.06l141.2,-322.68" id="path360"/>
    </g>
    <g id="g362" transform="translate(2.8421709430404007e-13,0) scale(1.5545799732208252) ">
     <path fill="#ffffff" fill-rule="nonzero" d="m16300,3919.52l0,-1823.39l-1891,0l0,1823.39l1891,0" id="path364"/>
    </g>
    <g id="g366" transform="translate(2.8421709430404007e-13,0) scale(1.6929199695587158) ">
     <path fill="#dfebfd" fill-rule="nonzero" d="m16300,3287.16l-991.5,0c0,0 -3.9,63.44 -28.7,135.92l978.4,0c2.2,-4.37 4.1,-8.74 5.7,-13.11c13.9,-36.69 26.5,-77.68 36.1,-122.81" id="path368"/>
    </g>
    <g id="g370" transform="translate(2.8421709430404007e-13,0) scale(1.7581900358200073) ">
     <path fill="#233862" fill-rule="nonzero" d="m16300,2288.55c-5.3,-8.76 -12.2,-14.51 -19.6,-15.82l-128.6,-23.83c-10.8,-2.04 -19.2,16.78 -16.3,36.23l12.5,86.46l0.4,2.1l2.5,17.69c2.3,15.24 9,26.84 17.1,30.09l7.4,2.84l65.4,-52.72c0,0 31.4,-32.19 59.2,-83.04" id="path372"/>
    </g>
    <g id="g374" transform="translate(2.8421709430404007e-13,0) scale(1.6622799634933472) ">
     <path fill="#ea6a60" fill-rule="nonzero" d="m16300,2399.48l-2824.6,0l0,143.78l2824.6,0l0,-143.78" id="path376"/>
    </g>
    <g id="g378" transform="translate(2.8421709430404007e-13,0) scale(1.5545799732208252) ">
     <path fill="#ea6a60" fill-rule="nonzero" d="m16300,3603.55l0,-153.61l-1891,0l0,153.61l1891,0" id="path380"/>
    </g>
    <g id="g382" transform="translate(2.8421709430404007e-13,0) scale(1.4900699853897095) ">
     <path fill="#ea6a60" fill-rule="nonzero" d="m15738.3,3221.79c0,155.09 125.8,280.79 280.9,280.79c155.1,0 280.8,-125.7 280.8,-280.79c0,-155.1 -125.7,-280.86 -280.8,-280.86c-155.1,0 -280.9,125.76 -280.9,280.86" id="path384"/>
    </g>
    <g id="g386" transform="translate(2.8421709430404007e-13,0) scale(1.487130045890808) ">
     <path fill="#ffffff" fill-rule="nonzero" d="m16050.9,3454.38c-60.4,0 -117.2,-23.54 -159.9,-66.31c-42.7,-42.7 -66.3,-99.52 -66.3,-159.9c0,-60.45 23.6,-117.21 66.3,-159.98c42.7,-42.69 99.5,-66.23 159.9,-66.23c60.4,0 117.2,23.54 159.9,66.23c42.8,42.77 66.3,99.53 66.3,159.98c0,60.38 -23.5,117.2 -66.3,159.9c-42.7,42.77 -99.5,66.31 -159.9,66.31zm0,-475.35c-66.5,0 -129.1,25.89 -176.1,72.96c-47.1,47.07 -73,109.61 -73,176.18c0,66.5 25.9,129.1 73,176.17c47,47.01 109.6,72.96 176.1,72.96c66.5,0 129.1,-25.95 176.1,-72.96c47.1,-47.07 73,-109.67 73,-176.17c0,-66.57 -25.9,-129.11 -73,-176.18c-47,-47.07 -109.6,-72.96 -176.1,-72.96" id="path388"/>
    </g>
    <g id="g390" transform="translate(2.8421709430404007e-13,0) scale(1.4790799617767334) ">
     <path fill="#ffffff" fill-rule="nonzero" d="m16300,3286.57l-120.9,0l0,120.95l-81.7,0l0,-120.95l-120.9,0l0,-81.67l120.9,0l0,-120.95l81.7,0l0,120.95l120.9,0l0,81.67" id="path392"/>
    </g>
    <g id="g394" transform="translate(2.8421709430404007e-13,0) scale(1.686579942703247) ">
     <path fill="#233862" fill-rule="nonzero" d="m16262.7,2294.77l-163.8,16.3l-0.2,0l-86.4,8.54c-30.2,2.96 -54.6,25.62 -59.9,55.38l-19.9,109.21c-0.3,1.78 -0.6,3.38 -0.3,5.16l0,0.18c-1.1,23.01 20,41.68 43.6,36.94l255.1,-51.82c16.3,-3.38 29.2,-15.48 33.6,-31.37l30,-110.81c5.5,-20.22 -11,-39.91 -31.8,-37.71" id="path396"/>
    </g>
    <g id="g398" transform="translate(2.8421709430404007e-13,0) scale(1.608049988746643) ">
     <path fill="#98baf4" fill-rule="nonzero" d="m16119.9,3325.71l180.1,-443.52l-309,0c0,0 -63.4,10.57 -71.5,140.11c-8.7,138.3 -8.7,376.97 -8.7,376.97l135.7,0.63c51.6,-7.78 59.7,-36.2 73.4,-74.19" id="path400"/>
    </g>
    <g id="g402" transform="translate(2.8421709430404007e-13,0) scale(1.6081299781799316) ">
     <path fill="#233862" fill-rule="nonzero" d="m16207.5,3109.76c0,0 15.7,-179.27 -72.8,-228.34l165.3,0l-92.5,228.34" id="path404"/>
    </g>
    <g id="g406" transform="translate(2.8421709430404007e-13,0) scale(1.6022299528121948) ">
     <path fill="#233862" fill-rule="nonzero" d="m16291.6,3000.82c0,0 -37.4,26.65 -40.7,48.75l0,-125.83l49.1,0l-8.4,77.08" id="path408"/>
    </g>
    <g id="g410" transform="translate(2.8421709430404007e-13,0) scale(1.5973999500274658) ">
     <path fill="#233862" fill-rule="nonzero" d="m16300,3058.84l0,-139.17c0,-12.33 -2.9,-24.29 -8.2,-34.8c-12.8,-25.54 -39.4,-43.14 -69.8,-43.14l-25,0c-42.7,0 -77.9,35 -77.9,77.94l0,139.17c0,14.71 4.2,28.35 11.3,40.06l0,0.19c13.8,22.66 38.6,37.75 66.6,37.75l25,0c42.9,0 78,-35.18 78,-78" id="path412"/>
    </g>
    <g id="g414" transform="translate(2.8421709430404007e-13,0) scale(1.5596699714660645) ">
     <path fill="#233862" fill-rule="nonzero" d="m16248.6,2147.44c0,-19.94 2.8,-39.3 8.8,-57.96l-1297.8,0l0,194.72l1340.4,0c-32.4,-39.94 -51.4,-86.75 -51.4,-136.76" id="path416"/>
    </g>
    <g id="g418" transform="translate(2.8421709430404007e-13,0) scale(1.5024800300598145) ">
     <path fill="#233862" fill-rule="nonzero" d="m16246.7,2229.17c0,-20.7 2.8,-40.79 9,-60.16l-1347.1,0l0,202.13l1391.4,0c-33.6,-41.47 -53.3,-90.05 -53.3,-141.97" id="path420"/>
    </g>
    <g id="g422" transform="translate(2.8421709430404007e-13,0) scale(1.4341299533843994) ">
     <path fill="#172944" fill-rule="nonzero" d="m16288.7,2272.25l-504.2,0c-10.7,45.53 -42.7,369.56 239.8,369.56c256.8,0.07 275.7,-295.65 264.4,-369.56" id="path424"/>
    </g>
    <g id="g426" transform="translate(2.8421709430404007e-13,0) scale(1.4314099550247192) ">
     <path fill="#233862" fill-rule="nonzero" d="m15972.6,2347.33c0,-117.85 60.7,-247.86 60.7,-247.86c0,0 90.4,0 103,0c90.4,0 163.7,111.01 163.7,247.86c0,136.86 -176.2,247.87 -266.7,247.87c-90.4,0 -60.7,-111.01 -60.7,-247.87" id="path428"/>
    </g>
    <g id="g430" transform="translate(2.8421709430404007e-13,0) scale(1.4223699569702148) ">
     <path fill="#2b478b" fill-rule="nonzero" d="m15970.5,2362.25c0,-137.73 73.7,-249.44 164.7,-249.44c91.1,0 164.8,111.71 164.8,249.44c0,137.73 -73.7,249.44 -164.8,249.44c-91,0 -164.7,-111.71 -164.7,-249.44" id="path432"/>
    </g>
    <g id="g434" transform="translate(2.8421709430404007e-13,0) scale(1.419010043144226) ">
     <path fill="#afcdfb" fill-rule="nonzero" d="m16051.2,2367.85c0,-104.01 55.7,-188.3 124.4,-188.3c68.7,0 124.4,84.29 124.4,188.3c0,104.02 -55.7,188.3 -124.4,188.3c-68.7,0 -124.4,-84.28 -124.4,-188.3" id="path436"/>
    </g>
    <g id="g438" transform="translate(2.8421709430404007e-13,0) scale(1.1713099479675293) ">
     <path fill="#163560" fill-rule="nonzero" d="m15469.6,5355.73c-12.8,24.67 279.1,113.46 283.7,-129.94c0,0 546.7,13.4 285.6,318.1c-90.3,105.53 -81,192.69 -78.3,273.88c2.8,81.2 -56.3,317.17 -258.7,293.44c0,0 -52.9,21.6 -119,-12.72c-150.4,-78.03 -487.3,-832.58 -113.3,-742.76" id="path440"/>
    </g>
    <g id="g442" transform="translate(2.8421709430404007e-13,0) scale(1.1913199424743652) ">
     <path fill="#ffb27d" fill-rule="nonzero" d="m16088.6,4998.16c0,0 34.9,53.3 63.1,54.31c28.2,1.09 80.4,15.69 76.2,5.2c-4.1,-10.41 -36.5,-11.42 -39.6,-17.71c-3.2,-6.3 48,-15.7 62.6,-16.7c14.6,-1.1 49.1,0 48,-7.31c-1,-7.3 -62.1,-37.6 -105.2,-33.4c-43,4.11 -96.3,-12.6 -96.3,-12.6l-8.8,28.21" id="path444"/>
    </g>
    <g id="g446" transform="translate(2.8421709430404007e-13,0) scale(1.1782599687576294) ">
     <path fill="#163560" fill-rule="nonzero" d="m15755.2,5036.14c0,0 19.2,-38.11 54.1,-81.82c42.1,-52.7 106.8,-113.47 188.2,-125.52c38.9,-5.68 76.9,2.63 111.9,18.16l0.1,0.09c98.8,43.88 173.1,144.7 173.1,144.7c17.4,47.53 -11.1,79.78 -11.1,79.78c0,0 -199.5,-44.9 -218.6,-35.39c-19,9.51 -129.8,328.87 -156.2,369.02c-26.4,40.14 -116.4,61.02 -116.4,61.02l-25.1,-430.04" id="path448"/>
    </g>
    <g id="g450" transform="translate(2.8421709430404007e-13,0) scale(1.102139949798584) ">
     <path fill="#233862" fill-rule="nonzero" d="m16047.4,3081c0,0 -65.1,-59.43 -52.4,-101.62c12.7,-42.19 71.5,-70.4 79.4,-121.94c7.9,-51.63 39.7,-79.75 68.3,-79.75c28.5,0 136.3,0 136.3,0c0,0 21,36.29 -29.8,47.27c-50.8,10.88 -70,71.59 -66.8,127.84c3.2,56.25 -4.8,131.29 -4.8,131.29l-108,25.04l-22.2,-28.13" id="path452"/>
    </g>
    <g id="g454" transform="translate(2.8421709430404007e-13,0) scale(1.1474000215530396) ">
     <path fill="#233862" fill-rule="nonzero" d="m15943.7,2935.25c0,0 -22.5,-241.77 5,-255.28l351.3,0.7c0,0 0,40.53 -56.4,49.59c-56.5,8.98 -155.6,42.01 -172.4,115.66c-16.7,73.55 -127.5,89.33 -127.5,89.33" id="path456"/>
    </g>
    <g id="g458" transform="translate(2.8421709430404007e-13,0) scale(1.153090000152588) ">
     <path fill="#ffb27d" fill-rule="nonzero" d="m15615.9,4646.66c72,161.31 116,207.62 107.6,257.66c-6.3,37.29 19,694.92 19,694.92c8.6,2.68 25.7,5.03 35.1,7.11c29.5,6.59 53.9,27.32 64.1,55.76c12.2,34.26 21.9,84.9 21.7,148.38l9.2,-1.81l155,-30.71c0,0 -3.6,-48.73 -3.6,-94.7l0,-1.13c-0.2,-39.89 25.9,-75.1 64.3,-86.2c19.5,-5.64 36.5,-10.49 36.5,-10.49c0,0 57,-162.44 67.8,-329.29c10.9,-166.86 -103.4,-239.36 0.9,-572.9c106.5,-340.57 -617.3,-125.75 -577.6,-36.6" id="path460"/>
    </g>
    <g id="g462" transform="translate(2.8421709430404007e-13,0) scale(1.1338200569152832) ">
     <path fill="#e8945b" fill-rule="nonzero" d="m16300,5876.17c0,0 -3.6,-49.56 -3.7,-96.31c-88.2,2.47 -134.8,83 -153.9,127.54l157.6,-31.23" id="path464"/>
    </g>
    <g id="g466" transform="translate(2.8421709430404007e-13,0) scale(1.141260027885437) ">
     <path fill="#ffb27d" fill-rule="nonzero" d="m16223,5793.96c0,0 -207.3,-3.42 -207.5,125.65c-0.1,129.15 -27,215.64 105.4,223.26c132.3,7.71 158.1,-41.53 168.6,-84.64c10.5,-43.11 -12.6,-260.07 -66.5,-264.27" id="path468"/>
    </g>
    <g id="g470" transform="translate(2.8421709430404007e-13,0) scale(1.1353299617767334) ">
     <path fill="#163560" fill-rule="nonzero" d="m16300,6178.14c0,0 -57.1,-152.2 -144.6,-174.75c-87.6,-22.55 -125.5,0.97 -125.5,0.97c0,0 67.2,53.38 81.1,146.48c0,0 146,99.79 189,27.3" id="path472"/>
    </g>
    <g id="g474" transform="translate(2.8421709430404007e-13,0) scale(1.1434500217437744) ">
     <path fill="#163560" fill-rule="nonzero" d="m16170.1,6121.98c0,0 42,-15.66 59.2,-46.35c17,-29.91 31.3,-69.62 28,-118.24c0,0 42.7,102.76 -5.2,160.83c-50.9,61.65 -82,3.76 -82,3.76" id="path476"/>
    </g>
    <g id="g478" transform="translate(2.8421709430404007e-13,0) scale(1.1379400491714478) ">
     <path fill="#ebf3fa" fill-rule="nonzero" d="m16225,5891.15c0,0 14.3,-18.9 43,-17.58c23.1,1.15 32,21.18 32,21.18c0,0 -42.4,10.19 -75,-3.6" id="path480"/>
    </g>
    <g id="g482" transform="translate(2.8421709430404007e-13,0) scale(1.1499899625778198) ">
     <path fill="#163560" fill-rule="nonzero" d="m15686,5322.67c0,0 0.8,-97.57 6,-185.92c3.5,-58.61 8.9,-113.13 17.3,-132.61c21.1,-48.7 44.9,-56.61 44.9,-56.61l184.1,-45.04l64.7,-15.83l204,60.87c0,0 93,259.48 55.7,405.57c-37.4,146 -94.4,247.48 -94.4,247.48c0,0 -166.5,-163.13 -383.4,13.83l-98.9,-291.74" id="path484"/>
    </g>
    <g id="g486" transform="translate(2.8421709430404007e-13,0) scale(1.1505600214004517) ">
     <path fill="#ed7d2b" fill-rule="nonzero" d="m16186.1,4905.79c0,0 101,-314.45 107.5,-421.53c6.4,-106.99 -193.2,-1520.74 -201.2,-1570.02c-7.6,-46.5 -65.3,-76.14 -65.3,-76.14c0,0 -26.5,-15.73 -64.4,-5.04c-52.6,14.86 -69.3,32.68 -69.3,32.68c0,0 -78.6,1008.2 -29.9,1368.38c48.6,360.17 49.2,671.67 49.2,671.67l273.4,0" id="path488"/>
    </g>
    <g id="g490" transform="translate(2.8421709430404007e-13,0) scale(1.1420700550079346) ">
     <path fill="#f99746" fill-rule="nonzero" d="m15875.2,4951.64c0,0 -155.2,-208.22 -169.7,-349.02c-14.5,-140.8 -22.7,-635.43 -53.5,-772.63c-30.9,-137.3 -144.2,-401.47 -144.2,-829.55c0,0 11.9,-24.52 48.2,-37.66c11.6,-4.11 27.2,-8.23 42.3,-11.64c30,-6.92 60.8,7.79 74.4,35.29c76.6,154.19 320.6,651.53 333.1,754.77c8.8,73.11 85.9,556.62 253.8,840.32c40.4,68.12 -24.7,339.03 -24.7,339.03l-359.7,31.09" id="path492"/>
    </g>
    <g id="g494" transform="translate(2.8421709430404007e-13,0) scale(1.1381499767303467) ">
     <path fill="#ffffff" fill-rule="nonzero" d="m16226.5,5886.55c0,0 3.7,-15.2 41.6,-12.83c0,0 31.9,1.94 30.9,18.72c0,0 -30.9,11.95 -72.5,-5.89" id="path496"/>
    </g>
    <g id="g498" transform="translate(2.8421709430404007e-13,0) scale(1.1447700262069702) ">
     <path fill="#233862" fill-rule="nonzero" d="m16284.1,4979.35c0,0 -40.7,-32.23 -121.7,-33.89c-96.7,-1.92 -336.4,24.72 -336.4,24.72c0,0 -10.6,-29.78 -10.2,-61.23c0,0 292.7,-73.82 462.3,-10.75c0,0 21.9,41.15 6,81.15" id="path500"/>
    </g>
    <g id="g502" transform="translate(2.8421709430404007e-13,0) scale(1.1398299932479858) ">
     <path fill="#ffffff" fill-rule="nonzero" d="m16226,4933.35c0,-19.57 13.3,-35.44 29.7,-35.44c16.3,0 29.6,15.87 29.6,35.44c0,19.56 -13.3,35.44 -29.6,35.44c-16.4,0 -29.7,-15.88 -29.7,-35.44zm-14.7,0c0,27.63 19.9,50.18 44.4,50.18c24.4,0 44.3,-22.55 44.3,-50.18c0,-27.64 -19.9,-50.18 -44.3,-50.18c-24.5,0 -44.4,22.54 -44.4,50.18" id="path504"/>
    </g>
    <g id="g506" transform="translate(2.8421709430404007e-13,0) scale(1.1214599609375) ">
     <path fill="#163560" fill-rule="nonzero" d="m15773,4532.84l470.2,-101.39l56.8,263.59l-470.1,101.39l-56.9,-263.59" id="path508"/>
    </g>
    <g id="g510" transform="translate(2.8421709430404007e-13,0) scale(1.1214599609375) ">
     <path fill="#17467f" fill-rule="nonzero" d="m16300,4695.04c0,0 -131.4,-110.12 -277.5,-71.87c-146.1,38.34 -192.6,173.26 -192.6,173.26l470.1,-101.39" id="path512"/>
    </g>
    <g id="g514" transform="translate(2.8421709430404007e-13,0) scale(1.1187399625778198) ">
     <path fill="#17467f" fill-rule="nonzero" d="m16256.3,4723.72c0,-9.65 7.9,-17.43 17.5,-17.43c9.7,0 17.4,7.78 17.4,17.43c0,9.66 -7.7,17.52 -17.4,17.52c-9.6,0 -17.5,-7.86 -17.5,-17.52zm-8.7,0c0,14.48 11.7,26.19 26.2,26.19c14.4,0 26.2,-11.71 26.2,-26.19c0,-14.39 -11.8,-26.19 -26.2,-26.19c-14.5,0 -26.2,11.8 -26.2,26.19" id="path516"/>
    </g>
    <g id="g518" transform="translate(2.8421709430404007e-13,0) scale(1.0906100273132324) ">
     <path fill="#ffb27d" fill-rule="nonzero" d="m16300,4811.54c0,0 -0.2,-39.25 -7.7,-58.22c-7.4,-18.89 -29.8,-44.2 -37.2,-44.2c-7.5,0 6.9,39.52 3.1,38.69c-3.8,-0.82 -21.7,-65.65 -34.8,-67.21c-13,-1.65 -24.8,72.72 -17.9,101.96c6.8,29.16 36.2,64.19 36.2,64.19l58.3,-35.21" id="path520"/>
    </g>
    <g id="g522" transform="translate(2.8421709430404007e-13,0) scale(1.120479941368103) ">
     <path fill="#163560" fill-rule="nonzero" d="m16200.7,5762.18c0,0 -116.8,-15.8 -179.7,-139.67c-48.5,-95.68 -81.9,-396.71 -116.2,-491.58c-32.7,-90.67 -78,-266.04 -103.2,-406.52c-2,-10.98 4,-21.69 14.2,-25.79l43,-16.96c9.3,-3.75 19.9,-0.18 24.9,8.39c38.2,64.08 188.7,320.76 240.9,469.17c61.2,173.59 175.4,281.4 175.4,281.4l-99.3,321.56" id="path524"/>
    </g>
    <g id="g526" transform="translate(2.8421709430404007e-13,0) scale(1.119420051574707) ">
     <path fill="#0c2442" fill-rule="nonzero" d="m16272.5,4741.13c0.3,4.29 27.5,434.06 22.2,675.62c-2.6,126.85 -22.2,216.27 -38.2,268.89c-17.4,57.44 -43.4,80.93 -44.1,82.09l-8.9,-2.68c0.6,-1.07 72.8,-109.61 77.9,-348.57c5.2,-241.02 -22,-670.17 -22.2,-674.46l13.3,-0.89" id="path528"/>
    </g>
    <path fill="#ffb27d" fill-rule="nonzero" d="m10030.1,3316.6l-74.69,24.3c0,0 -15.51,202.8 17.73,445.9c21.05,154 59.66,320.8 129.56,454.7c31.7,60.7 69.7,114.6 115.5,157.5c0,0 57.3,133.1 133.3,311.1c84.4,197.9 612.8,255.9 311.3,-158.6c-61.8,-85.1 -128.3,-234.8 -207.9,-325.7c-136,-155.4 -232,-336.9 -298,-496.6c-94.2,-228.5 -126.8,-412.6 -126.8,-412.6" id="path530"/>
    <path fill="#ffb27d" fill-rule="nonzero" d="m9860.01,3305.3c-22.66,-36.7 26.26,-72.7 86.77,-106.6c60.52,-33.8 35.46,-37.2 112.82,-94.9c77.4,-57.6 123,-51.2 134.9,-42.8c10.5,7.5 -21.1,43.1 -54.3,82c-4.2,4.9 -8.3,9.8 -12.5,14.8c-37,44.4 -42.5,100.1 -59.9,157.9c-16.5,54.7 9.6,190.8 9.6,190.8l-103.28,82c0,0 -20.98,-123.7 -32.53,-175.2c-6.79,-30.4 -31.56,-55.7 -51.65,-74.4c-10.89,-10.2 -21.97,-20.6 -29.93,-33.6" id="path532"/>
    <path fill="#1c468a" fill-rule="nonzero" d="m9946.78,3198.7c60.52,-33.8 35.46,-37.2 112.82,-94.9c77.4,-57.6 123,-51.2 134.9,-42.8c10.5,7.5 -21.1,43.1 -54.3,82l-1,-0.4c0,0 -69.9,9.4 -129.6,62.4c-48.61,43.2 -86.31,103.8 -119.66,133.9c-10.89,-10.2 -21.97,-20.6 -29.93,-33.6c-22.66,-36.7 26.26,-72.7 86.77,-106.6" id="path534"/>
    <path fill="#ffb27d" fill-rule="nonzero" d="m9588.51,3184.9l-86.13,-44.6c0,0 -51.53,67.1 -97.55,148.2c-32.21,56.7 -61.79,120.4 -69.03,172.5c-17.6,126.7 -151.66,334.8 -137.71,370.2c13.95,35.5 279.81,96.8 279.81,96.8c0,0 51.97,-355.8 86.53,-585.8c10.09,-67.2 18.66,-123.6 24.08,-157.3" id="path536"/>
    <path fill="#2b478b" fill-rule="nonzero" d="m9522.9,3681.7c-49.22,-23.9 -94.93,-37.6 -134.15,-45.3c-58.46,-11.4 -102.44,-9.5 -121.89,-7.6c-7.2,0.7 -11.03,1.4 -11.03,1.4c0,0 -47.84,34.5 -103.28,114.8c-50.81,73.6 -88.57,178.9 -88.57,180.2l405.97,39.5l52.95,-283" id="path538"/>
    <path fill="#233862" fill-rule="nonzero" d="m9388.75,3636.4c-58.46,-11.4 -102.44,-9.5 -121.89,-7.6l45.62,177.3c0,0 59.08,-92.4 76.27,-169.7" id="path540"/>
    <path fill="#ffffff" fill-rule="nonzero" d="m9588.51,3184.9l-86.13,-44.6c0,0 -51.53,67.1 -97.55,148.2c35.84,2.7 98.12,13.4 159.6,53.7c10.09,-67.2 18.66,-123.6 24.08,-157.3" id="path542"/>
    <path fill="#ffb27d" fill-rule="nonzero" d="m9392.79,3846.7c0,0 -108.83,-153.6 -174.76,-369.4c-15.5,-50.8 -68.36,-114.1 -121.8,-170.4c-51.84,-54.6 -104.21,-102.5 -123.58,-126.1l-87.74,42.2c0,0 30.83,88.5 76.45,168.7c16.93,29.9 35.85,58.6 56.07,81.2c27.94,31.3 18.74,426.2 46.55,452.3c27.85,26 328.81,-78.5 328.81,-78.5" id="path544"/>
    <path fill="#2b478b" fill-rule="nonzero" d="m9444.63,3938.1l-160.66,-326.6c-0.93,-0.1 -119.75,-3.7 -204.13,43.6c-48.38,27.1 -70.1,59.1 -70.1,59.1l50.08,223.9l384.81,0" id="path546"/>
    <path fill="#b64c41" fill-rule="nonzero" d="m9156.85,5028.6c0,0 -54.66,114.9 -186.69,46.5c-132.03,-68.4 -3.49,-329.2 -72.79,-393.6c-69.29,-64.5 25.12,-106.6 11.05,-152.8c-14.05,-46.2 26.12,-98.8 118.51,-92.6c92.39,6.2 189.68,1.2 231.42,82c41.74,80.9 32.26,258.7 16.13,283.7c-16.13,25 -117.63,226.8 -117.63,226.8" id="path548"/>
    <path fill="#ffb27d" fill-rule="nonzero" d="m9145.86,4551.1l0.43,-0.3l-0.43,0.3" id="path550"/>
    <path fill="#ffb27d" fill-rule="nonzero" d="m9370.8,4415.4l-224.51,135.4c1.25,0.5 5.79,7.3 22.57,55.9c7.15,20.7 10.94,38.6 12.81,52.9c0.19,1.4 0.37,2.8 0.5,4.1c2.3,20.7 0.62,32.7 0.62,32.7l49.18,-17.8l90.95,-33c-1.05,-23 2.18,-39.3 7.09,-50.4c11.87,-27 34.01,-27.2 34.63,-27.2l6.16,-152.6" id="path552"/>
    <path fill="#ed985f" fill-rule="nonzero" d="m9330.01,4595.2c-87.91,-7.4 -137.4,49.9 -148.34,64.4c-1.62,2.1 -2.43,3.3 -2.43,3.3c0,0 1.06,0.3 2.93,0.8c7.15,2.1 26.55,8 49.8,14.9l90.95,-33c-1.05,-23 2.18,-39.3 7.09,-50.4" id="path554"/>
    <path fill="#ffb27d" fill-rule="nonzero" d="m9334.41,4626.8c0,0 -195.3,-21.5 -199.3,110.6c-4,132.1 -32.87,192.5 102.26,204.3c135.13,11.7 167.05,-36.9 175.01,-81.6c24.88,-139.6 -22.95,-227.4 -77.97,-233.3" id="path556"/>
    <path fill="#d35c2b" fill-rule="nonzero" d="m8970.16,5075.1c-2.73,6.1 -4.67,10.1 -4.67,10.1c2.03,-2.8 3.56,-6.3 4.67,-10.1" id="path558"/>
    <path fill="#ffb27d" fill-rule="nonzero" d="m9397.2,4554.8c0,0 187.27,143.9 207.26,191.5c19.99,47.6 105.96,222 128.17,239.8c0,0 46.56,6 53.22,-26.3c6.66,-32.2 -44.34,-223.5 -79.87,-281.2c-35.54,-57.8 -205.82,-253.5 -261.74,-282l-47.04,158.2" id="path560"/>
    <path fill="#ffb27d" fill-rule="nonzero" d="m9852.31,5074.2c-3.09,-16.7 -9.88,-34.6 -17.91,-43.8c-10.49,-12.4 -27.17,-37.1 -37.67,-53.1c-6.79,-9.9 -11.11,-17.3 -11.11,-17.3l-53.11,25.9c0,0 -1.24,90.2 33.96,109.3c1.24,0.6 1.86,1.2 3.09,1.2c14.82,8.1 29.03,13.6 41.38,17.3c16.67,4.3 29.64,5 37.05,0.6c6.79,-3.7 8.03,-21.6 4.32,-40.1" id="path562"/>
    <path fill="#b64c41" fill-rule="nonzero" d="m9247.87,4877.1c-69.11,17.5 -42.68,-104.9 -60.15,-96.5c-19.54,9.4 -53.11,9.2 -47.81,-14.4c5.3,-23.6 12.95,-32 16.94,-46.7c3.98,-14.8 -0.03,-43.9 -16.1,-38c-16.07,5.8 -165.53,176.5 -60,309.4c105.52,133 420.2,51.1 321.11,-88c-17.43,-24.4 -104.78,-38.2 -153.99,-25.8" id="path564"/>
    <path fill="#f99746" fill-rule="nonzero" d="m9498.69,3890c0,0 -58.68,-31.2 -151.08,-29.7c-58.86,0.9 -183.86,26.5 -264.22,55.5c-45.8,16.5 -77.12,34.1 -73.34,48.9c5.42,21.3 44.64,185 80.89,336.5c33.14,138.5 63.79,266.8 63.79,266.8c0,0 91.47,-65 144.77,-42.1c53.31,23 46.47,48.9 46.47,48.9c0,0 34.87,14.1 51.22,8.9c16.35,-5.2 62.77,21.1 62.77,21.1c0,0 51.26,-39.6 53.21,-124.7c0.32,-12.6 -0.44,-26.2 -2.66,-40.8l-37,-42.7c0,0 78.49,-247.4 25.18,-506.6" id="path566"/>
    <path fill="#aa443e" fill-rule="nonzero" d="m9731.15,3079.1l-257.18,0c0,0 -4.91,41.9 1,77.6c0.71,4.4 2.97,8.3 6.35,11.8c15.06,-5.1 37.18,-8.7 61.8,0.1c20.16,7.2 35.09,18.3 45.48,28.3c2.66,-2.6 55.79,-53.2 80.36,-53.2c25.19,0 63.66,-12.1 62.19,-64.6" id="path568"/>
    <path fill="#ffffff" fill-rule="nonzero" d="m9096.23,3306.9c-51.84,-54.6 -104.21,-102.5 -123.58,-126.1l-87.74,42.2c0,0 30.83,88.5 76.45,168.7c15.69,-24.4 56.86,-74.6 134.87,-84.8" id="path570"/>
    <path fill="#aa443e" fill-rule="nonzero" d="m8991.66,3203.5c0,0 -3.21,-55.8 15.4,-63.2c18.61,-7.4 53.31,-25.7 53.31,-61.2l-128.83,0c0,0 -88.84,43.7 -100.69,62.3c-11.84,18.6 59.19,97.8 59.19,97.8c0,0 43.65,-48.3 101.62,-35.7" id="path572"/>
    <path fill="#ffb27d" fill-rule="nonzero" d="m9204.79,4110.9c0,0 56.41,10.6 78.48,-3.9c22.06,-14.4 28.59,-37 12.7,-46.3c-49.79,-28.9 -100.26,3.1 -100.26,3.1l9.08,47.1" id="path574"/>
    <path fill="#ffb27d" fill-rule="nonzero" d="m9157.01,4550.3c0,0 -173.74,-36.8 -242.26,-306.9c-6.71,-26.4 0.23,-54.6 18.49,-74.8c31.51,-34.9 100.96,-86 262.47,-104.8c17.63,-2.1 20.01,42.7 20.01,42.7c-1.76,-3.6 -109.72,69.7 -155.67,109.1c-8.31,7.2 -7.96,22.1 -1.96,31.3c15.52,23.7 41.57,64.6 50.33,85.7c12.78,30.6 97.14,203.8 48.59,217.7" id="path576"/>
    <path fill="#f99746" fill-rule="nonzero" d="m9154.75,4568c0,0 -102.14,-7.3 -185.43,-118.3c0,0 28.18,-102.2 160.49,-129.5c0,0 81.56,184 24.94,247.8" id="path578"/>
    <path fill="#b64c41" fill-rule="nonzero" d="m10547.5,7206.6c0,0 -182.2,22.1 -273.9,-147.5c-91.6,-169.6 -84.2,-415.3 -173.1,-531.2c-88.8,-115.9 14.9,-225.8 14.9,-225.8l692.2,-23.4c0,0 48.1,129.6 0,285.1c-48.1,155.4 186.9,619.2 -260.1,642.8" id="path580"/>
    <path fill="#e8945b" fill-rule="nonzero" d="m11133.6,5148c-7.1,-27 -30.3,-88.1 -48.3,-88.1c-14.7,0 -20,74.8 -38.9,90.7c-27.4,23 -49.7,71.3 -53.3,83.1c-7.3,24.1 -14.2,29.1 -14.2,29.1l0.1,0.1l-0.1,0c0,0 -218.9,400.1 -236,502.5c-5.6,33.4 -20,100.3 -36.8,175.2c-18.3,81.5 -39.5,172.5 -55.5,240.7c69.9,13.6 147.1,18.4 210.2,19.6c12.8,-82.9 24.3,-167.6 34.2,-241.2c14.7,-109.5 25.9,-194.5 32.8,-212.7c19,-50 71.4,-319.3 120.9,-459.1c5.7,-13.8 21.7,-49.6 39.3,-61.8c22,-15.2 52.6,-51 45.6,-78.1" id="path582"/>
    <path fill="#ffb27d" fill-rule="nonzero" d="m10736.9,5543c-120.9,386.5 122.4,381.4 109.8,574.8c-12.6,193.4 -162.3,401.3 -162.3,401.3c0,0 -5.3,0.6 -14.7,1.4c-5.1,0.5 -9.6,3.9 -11.3,8.7c-5.6,15.3 -7.2,48.7 -7.1,83.6c0.1,53.2 4.2,109.7 4.2,109.7l-179.6,35.6l-10.7,2.1c0.3,-90.3 -16.8,-158.2 -35.3,-196.2c-8.8,-18 -25.9,-30.3 -45.8,-33.1c-38.6,-5.4 -106.5,-17 -152.2,-36.1c-22.3,-9.3 -39.2,-20.3 -45.1,-33.3c-49.3,-108.5 -98.6,-382.1 -133.2,-577.3c-19.3,-108.8 -34,-193.3 -41.6,-211.1c-21.45,-50 -86.86,-324.7 -142.75,-460.2l71.38,-21.4c0,0 235.47,390.6 256.87,492.3c7,33.1 24.1,99.3 44.1,173.5c3,11.2 6.1,22.6 9.2,34.1c35.3,-95.7 53.3,-139.9 52.3,-181.3c-1.4,-58.8 -41.3,-111.7 -124.7,-298.6c-46,-103.3 681.9,-263.2 558.5,131.5" id="path584"/>
    <path fill="#e8945b" fill-rule="nonzero" d="m10655.5,6722.5c0,0 -4.1,-56.5 -4.2,-109.7c-100.5,2.8 -153.6,94.5 -175.4,145.3l179.6,-35.6" id="path586"/>
    <path fill="#ffb27d" fill-rule="nonzero" d="m10689,6672.1c0,0 -237.7,-3.9 -237.9,144.2c-0.1,148.1 -30.9,247.3 120.8,256.1c151.8,8.8 181.4,-47.7 193.5,-97.1c12,-49.5 -14.5,-298.3 -76.4,-303.2" id="path588"/>
    <path fill="#ffb27d" fill-rule="nonzero" d="m11020.8,3220.8l-76.3,-18.8c0,0 -120,164.3 -219.7,388.4c-63.2,142.1 -118.2,304.2 -129.3,454.9c-5,68.2 -1,134.1 15.2,194.7c0,0 -21.3,143.3 -50.5,334.6c-32.3,212.7 -74.3,484.6 -107.2,684.5l19.8,5.9l324.6,189.8c0,0 149.2,-339.9 111.1,-851.1c-7.9,-104.9 14.5,-267.1 -5.3,-386.4c-33.8,-203.7 -19.9,-408.6 8.1,-579.1c40.2,-243.8 109.5,-417.4 109.5,-417.4" id="path590"/>
    <path fill="#cb7d45" fill-rule="nonzero" d="m10236.7,5929.9c44.6,-123.1 67.5,-173.2 66.4,-219.8c142,219.9 398.5,253.1 398.5,253.1l-487.1,55.7c4.5,-30.2 11.7,-60 22.2,-89" id="path592"/>
    <path fill="#b64c41" fill-rule="nonzero" d="m10758.3,7057.6c-36.7,44.5 -64.4,34.8 -80,21.4c-127.5,70.7 -213.8,-34.2 -213.8,-34.2c-15.9,-106.3 -92.5,-167.1 -92.5,-167.1c0,0 42.3,-22.5 143.2,-1.1c119.8,25.4 152.7,160.4 157.5,177.9c14.5,-13 43.1,-41.3 51.9,-69.1c11.8,-37.7 17.1,-115.3 39.8,-112.7c0,0 49,118.1 -6.1,184.9" id="path594"/>
    <path fill="#ffb27d" fill-rule="nonzero" d="m9874.31,5224.8c0,0 -21.7,-51.2 -44.3,-65.4c-22.59,-14.3 -54.7,-48.8 -48.75,-76.1c5.95,-27.4 11.89,-70.2 40.43,-70.2c28.54,0 95.13,126 103.46,149.8c8.32,23.8 15.46,28.6 15.46,28.6l-66.3,33.3" id="path596"/>
    <path fill="#ffffff" fill-rule="nonzero" d="m10994.5,4100.9c-287,-164.1 -1042.76,97.1 -1041.99,112.2c4,80.3 76.59,563.6 161.89,1024.8c52.4,283.7 192,389.6 169.7,407.5l-0.3,0.3c-86.1,61.1 -48.9,165.9 -43.2,203.5c-26.4,-7.1 -111.7,-23.2 -209.3,30.6c40.2,196.6 97.5,472.2 154.9,581.4c2.7,5.3 7.5,10.2 14.1,14.9l-0.6,0.6c53.8,39.2 163.6,51.2 163.6,51.2c0,0 59.2,-144.9 77.3,-167.5c117.1,-146.4 327.6,-80.3 298.9,10.8c-10.3,33.2 -63.5,137.7 -69.9,149.4l14.9,-1.4c35.3,-4.7 60.3,-8.3 78.3,-11.4c35.3,-6 44,-10.2 52.8,-17c31,-30.9 71.3,-107.9 74.5,-245.3c1.3,-51.1 54.4,-615.1 -117.7,-605.3c-3.9,0.2 -0.5,-9 6.9,-26.5c24.3,-55.8 93.3,-196 113.3,-375.8c65,-584.9 101.9,-1137 101.9,-1137" id="path598"/>
    <path fill="#ffffff" fill-rule="nonzero" d="m10620.7,6759.6c0,0 4.5,-18.3 50,-14.9c0,0 38.1,2.8 36.7,22.9c0,0 -37.2,13.8 -86.7,-8" id="path600"/>
    <path fill="#ffb27d" fill-rule="nonzero" d="m9925.15,5162.9c0,0 -7.81,-57.5 -22.98,-70.8c-15.16,-13.3 -17.38,-37.2 -32.92,-24.3c-15.55,12.8 55.9,95.1 55.9,95.1" id="path602"/>
    <path fill="#ffb27d" fill-rule="nonzero" d="m10882.1,3121.6c0.1,-43.2 60.6,-48 129.9,-44.9c69.3,3 49.7,-13.1 145.9,-21.3c96.1,-8.3 131.5,21.2 137.2,34.6c5,11.9 -40.6,25.5 -89.3,41.1c-6.2,1.9 -12.3,4 -18.4,6c-54.9,18.2 -88.9,62.7 -134.1,102.7c-42.9,37.8 -92.3,167.2 -92.3,167.2l-131,15.4c0,0 47.3,-116.2 64.6,-166.1c10.2,-29.4 2.5,-64 -4.8,-90.4c-3.8,-14.4 -7.8,-29.1 -7.7,-44.3" id="path604"/>
    <path fill="#1c468a" fill-rule="nonzero" d="m11012,3076.7c69.3,3 49.7,-13.1 145.9,-21.3c96.1,-8.3 131.5,21.2 137.2,34.6c5,11.9 -40.6,25.5 -89.3,41.1l-0.7,-0.9c0,0 -64.3,-28.8 -143,-15.1c-64.1,11.1 -128.1,42.8 -172.3,50.8c-3.8,-14.4 -7.8,-29.1 -7.7,-44.3c0.1,-43.2 60.6,-48 129.9,-44.9" id="path606"/>
    <path fill="#f99746" fill-rule="nonzero" d="m10994.5,4100.9c-287,-164.1 -1042.76,97.1 -1041.99,112.2c4,80.3 76.59,563.6 161.89,1024.8c52.4,283.7 192,389.6 169.7,407.5c5.3,-4.3 86.3,-69.6 234.8,-60.8c132.9,8 235.3,24.7 260.4,29.1c24.3,-55.8 93.3,-196 113.3,-375.8c65,-584.9 101.9,-1137 101.9,-1137" id="path608"/>
    <path fill="#ed7d2b" fill-rule="nonzero" d="m10283.8,5645.7c0,0 235,-98.1 488.6,-5.5l12.9,-39.8c0,0 -260.9,-90.6 -511.7,12.5l10.2,32.8" id="path610"/>
    <g id="g612" transform="translate(2.8421709430404007e-13,0) scale(1.8851499557495117) ">
     <path fill="#2e3552" fill-rule="nonzero" d="m16282.1,1591.44l-15760.352,0c-9.845,0 -17.897,8.06 -17.897,17.93l0,6.1c0,9.81 8.052,17.87 17.897,17.87l15760.352,0c9.9,0 17.9,-8.06 17.9,-17.87l0,-6.1c0,-9.87 -8,-17.93 -17.9,-17.93" id="path614"/>
    </g>
    <g id="g616" transform="translate(2.8421709430404007e-13,0) scale(1.2665799856185913) ">
     <path fill="#233862" fill-rule="nonzero" d="m16300,2408.86l-201,0c1.5,10.5 6.6,42.63 16,72.16c3.3,10.26 7.1,20.29 11.5,28.98c19.5,39 143.7,14.21 143.7,14.21c0,0 11.5,-9.95 20.5,-47.69c3.9,-16.58 7.5,-38.69 9.3,-67.66" id="path618"/>
    </g>
    <g id="g620" transform="translate(2.8421709430404007e-13,0) scale(1.2455999851226807) ">
     <path fill="#9db0f4" fill-rule="nonzero" d="m16199.2,5571.61c0,0 -162.8,-28.59 -199.6,-124.76c-36.9,-96.1 -244.9,-1649.09 -244.9,-1649.09c0,0 103,-81.56 324.1,-52.26c221.2,29.3 120.4,1826.11 120.4,1826.11" id="path622"/>
    </g>
    <g id="g624" transform="translate(2.8421709430404007e-13,0) scale(1.2194499969482422) ">
     <path fill="#233862" fill-rule="nonzero" d="m16299,2567.8c-0.6,-28.37 -4.1,-55.27 -14.4,-65.85l-413,0c5.3,14.93 20.2,37.4 62.5,44.28c48.2,7.79 123.3,31 167.1,77.34c15.7,16.48 27.3,35.91 32.4,58.63c19.4,86.51 160.7,-26.49 160.7,-26.49c0,0 5.7,-45.59 4.7,-87.91" id="path626"/>
    </g>
    <g id="g628" transform="translate(2.8421709430404007e-13,0) scale(1.2555999755859375) ">
     <path fill="#233862" fill-rule="nonzero" d="m15657,2534.72c44.9,-14.25 130.5,-57.9 184.9,-37.35c35.2,13.22 231.8,581.87 244.5,830.6c1,18.08 4.5,43.32 10.1,74.07c11.6,64.19 32,152.43 55.4,249.76c63,260.83 148.1,587.13 146.2,691.38c-2.8,161.83 -482.3,33.92 -482.3,33.92c0,0 -33,-132.76 -39.6,-325.02c-13,-381.57 -48.8,-1026.04 -146.2,-1473.63c-4.1,-19.04 8.4,-37.83 27,-43.73" id="path630"/>
    </g>
    <g id="g632" transform="translate(2.8421709430404007e-13,0) scale(1.275820016860962) ">
     <path fill="#2b478b" fill-rule="nonzero" d="m15736.4,4273.79l249.4,-1808.09c0,0 109.6,-26.41 194.8,-5.33c0,0 73.1,961.66 67,1194.14c-6.1,232.47 52.4,622.1 -13.4,665.06c-65.7,42.95 -497.8,-45.78 -497.8,-45.78" id="path634"/>
    </g>
    <g id="g636" transform="translate(2.8421709430404007e-13,0) scale(1.2731399536132812) ">
     <path fill="#ffffff" fill-rule="nonzero" d="m16300,5368.06c0,0 -262.7,169.9 -451.2,83.03c-30,-13.83 -64.2,-52.47 -88.7,-79.49c-68.2,-75.09 -201.3,-1267.34 -201.3,-1267.34c0,0 377.8,-127.95 741.2,43.44l0,1220.36" id="path638"/>
    </g>
    <g id="g640" transform="translate(2.8421709430404007e-13,0) scale(1.236739993095398) ">
     <path fill="#9db0f4" fill-rule="nonzero" d="m16300,5615.99c0,0 -273.8,-112.23 -310.9,-198.42c-37.1,-86.2 -157.6,-615.66 -157.6,-677.76c0,-62.09 209.8,-13.9 243.6,86.28c28.1,83.12 122.7,338.55 172.6,500.11l52.3,289.79" id="path642"/>
    </g>
    <g id="g644" transform="translate(2.8421709430404007e-13,0) scale(1.2571200132369995) ">
     <path fill="#ffb27d" fill-rule="nonzero" d="m16091.6,5440.76c58.8,-11.54 145.2,0.79 208.4,42.48c-28.6,68.17 -40.3,122.02 -44.4,156.86c-0.2,1.91 -0.4,3.66 -0.6,5.41c-1.9,18.06 -1.6,30.31 -0.7,35.96l-152.1,0c0,0 -41.5,-19.02 -41.5,-32.14c0,-7.08 -0.1,-13.76 -0.2,-20.21c-0.3,-17.42 -1,-32.69 -1.9,-45.81c-2.9,-42.64 -7.8,-62.77 -7.8,-62.77c0,0 -18.6,-68.09 40.8,-79.78" id="path646"/>
    </g>
    <g id="g648" transform="translate(2.8421709430404007e-13,0) scale(1.2539399862289429) ">
     <path fill="#e2915a" fill-rule="nonzero" d="m16099.3,5597.46c115.4,-22.34 182.4,40.75 197.5,56.94c2.2,2.31 3.2,3.74 3.2,3.74c-1.2,0.56 -2.5,1.12 -3.8,1.68c-43,17.39 -140.5,3.59 -195,-16.43c-0.3,-17.46 -1,-32.77 -1.9,-45.93" id="path650"/>
    </g>
    <g id="g652" transform="translate(2.8421709430404007e-13,0) scale(1.2622699737548828) ">
     <path fill="#ffb27d" fill-rule="nonzero" d="m16226.8,5683.17c-20.5,-110.35 -162.9,-106.71 -224.4,-99.74c-17.3,1.9 -28.2,4.12 -28.2,4.12c-19.4,5.23 -30.4,35.97 -35.5,76.21c-10,79.7 2.7,196.71 16.1,226.66c20.3,45 58.5,93.72 201.8,58.54c143.4,-35.17 96.5,-124.45 70.2,-265.79" id="path654"/>
    </g>
    <g id="g656" transform="translate(2.8421709430404007e-13,0) scale(1.2685600519180298) ">
     <path fill="#233862" fill-rule="nonzero" d="m15870.4,5922.37c19.5,27.03 60.8,59.98 98.4,80.32c80.6,43.59 183.9,-1.42 184.3,-1.58c116.5,-51.23 146.9,-140.39 85.1,-279.21c-65.3,-146.86 -127.5,-130.3 -127.5,-130.3c0,0 13.2,8.19 12,53.99c-0.1,2.61 -0.1,4.73 -0.2,6.63c-0.7,9.38 2.7,18.76 9.7,25.06c14.4,12.85 21.5,51.95 9.4,62.83c-14.6,13.09 -35.2,-2.84 -41.7,-15.05c-5.8,-8.68 -16,-11.75 -25.6,-5.68c-36.3,22.94 -12.8,68.74 -47.4,96.8c-34.7,28.06 -105,4.5 -156.9,26.88c-68,25.38 -14.3,58.97 0.4,79.31" id="path658"/>
    </g>
    <g id="g660" transform="translate(2.8421709430404007e-13,0) scale(1.2792199850082397) ">
     <path fill="#aec3ff" fill-rule="nonzero" d="m15722.1,3586.87c22.8,-5.86 45.3,-10.63 67.7,-14.38c19.8,-3.37 39.5,-5.87 59.3,-7.51c111.9,-9.77 224.3,6.02 355.7,43.7c29.5,8.44 60.1,18.06 91.8,28.77c3.4,1.09 -8.6,348.49 -22.5,706.84c-1.4,36.97 -2.9,74.1 -4.3,111c-0.6,15.63 -1.2,31.19 -1.9,46.67c-12.5,316.91 -25,603.18 -27.6,618.58c-6,34.87 -11.6,64.57 -17.8,90.36c-17.9,75.05 -40.1,116.25 -88.5,151.66c-4.7,3.6 -43.5,23.14 -77.7,40.1c-28.3,14.07 -53.4,26.35 -53.4,26.35l-0.1,0c-11.3,-5.47 -24.8,-31.35 -38.9,-67.54c-26.1,-66.84 -54.1,-169.17 -73.7,-245.54l-0.1,-0.39l0,0c-12.6,-49.33 -21.6,-87.79 -24.2,-98.81c-4.4,-18.61 -10.1,-54.65 -16.9,-103.5c-9.2,-66.45 -20.1,-156.74 -31.8,-259.15c-1.2,-10.47 -2.4,-21.18 -3.6,-31.89c-1.4,-12.27 -2.8,-24.7 -4.1,-37.29c-0.5,-3.99 -1,-8.05 -1.4,-12.12c-4.4,-40.49 -9,-82.39 -13.4,-124.92c-3.8,-35.17 -57.1,-60.58 -60.7,-96.38c-2.2,-20.95 -6.6,-214.74 -12.3,-276.65c-4.2,-44.1 -1.2,-467.17 0.4,-487.96" id="path662"/>
    </g>
    <g id="g664" transform="translate(2.8421709430404007e-13,0) scale(1.2763400077819824) ">
     <path fill="#9db0f4" fill-rule="nonzero" d="m16144.3,5003.98c0.2,-0.7 9.1,-321.15 -232,-360.09c-241,-38.94 -80.9,-49.2 -80.9,-49.2c0,0 453.6,19.27 461.1,31.26c7.5,11.99 -148.2,378.03 -148.2,378.03" id="path666"/>
    </g>
    <g id="g668" transform="translate(2.8421709430404007e-13,0) scale(1.2815300226211548) ">
     <path fill="#9db0f4" fill-rule="nonzero" d="m15876.1,4488.06c0,0 4.5,-3.2 13.1,-8.74l0.4,-0.31c36.7,-23.33 145.4,-87.09 303.7,-129.85c16.6,-4.52 33.7,-8.73 51.5,-12.71c-1.5,36.9 -2.9,73.97 -4.3,110.8c20.9,1.64 40.9,4.29 59.5,8.27c-0.6,4.84 -1.3,9.68 -2,14.59c-20.1,8.2 -40.1,16.16 -59.4,23.72c-15.7,6.17 -30.9,12.02 -45.3,17.41c-65,24.73 -113.3,41.43 -113.3,41.43l-192.4,-60.94l-11.5,-3.67" id="path670"/>
    </g>
    <g id="g672" transform="translate(2.8421709430404007e-13,0) scale(1.3017499446868896) ">
     <path fill="#aec3ff" fill-rule="nonzero" d="m15579.3,4423.57c0,0 24.3,-6.07 63.1,-13.83l0.4,-0.08c71.5,-14.36 191.6,-34.56 298.9,-33.41c15.8,0.15 31.4,0.77 46.5,1.92c20.6,1.61 40.2,4.22 58.6,8.14c39.2,8.22 72.1,22.28 93.6,44.17c159.6,162.63 -87.1,746.23 -139.1,802.99c-60.5,66.3 -171.1,89.58 -232.1,97.56c-2.6,0.31 -5,0.62 -7.4,0.93c-21.4,2.53 -35.3,3.07 -36,3.07l0,0c0,0 4.7,-15.36 12.8,-41.48c3.1,-10.07 6.7,-21.82 10.7,-34.88c37.5,-122.76 109.8,-364.12 141.7,-500.17c11.7,-49.86 17.9,-85.5 15.1,-96.18c-12.5,-46.47 -141.5,-70.36 -223.1,-80.96c-34.1,-4.38 -60,-6.46 -65.8,-6.92l-1.2,-0.08l-4.7,-19.35l-11.4,-46.56l-11,-45.63l-9.6,-39.25" id="path674"/>
    </g>
    <g id="g676" transform="translate(2.8421709430404007e-13,0) scale(1.2524199485778809) ">
     <path fill="#f99746" fill-rule="nonzero" d="m15730.1,4307.09l569.9,24.03l-115.6,710.15l-569.9,-24.04l115.6,-710.14" id="path678"/>
    </g>
    <g id="g680" transform="translate(2.8421709430404007e-13,0) scale(1.2509000301361084) ">
     <path fill="#ffb27d" fill-rule="nonzero" d="m16250.8,4760.33c0,0 -111,7.75 -116.6,-18.15c-12.9,-60.36 95.5,-109.92 130.6,-106.57c35.2,3.44 11.6,128.71 -14,124.72" id="path682"/>
    </g>
    <g id="g684" transform="translate(2.8421709430404007e-13,0) scale(1.2132200002670288) ">
     <path fill="#ffb27d" fill-rule="nonzero" d="m16151.2,5030.5c0,0 109.6,34.28 121.4,9.64c27.4,-57.45 -69.6,-133.04 -105.6,-137.98c-36.1,-5.03 -42.3,126.27 -15.8,128.34" id="path686"/>
    </g>
    <g id="g688" transform="translate(2.8421709430404007e-13,0) scale(1.260849952697754) ">
     <path fill="#9db0f4" fill-rule="nonzero" d="m16224.5,5543.55c0,0 52.3,-9.04 75.5,-42.43c0,0 -179.2,-313.83 -178.4,-311.06c0.7,2.85 58.6,314.94 102.9,353.49" id="path690"/>
    </g>
    <g id="g692" transform="translate(2.8421709430404007e-13,0) scale(1.2383400201797485) ">
     <path fill="#9db0f4" fill-rule="nonzero" d="m16299.7,5639.95c-15.6,-5.81 -45.4,-36.34 -52.1,-53.21l-21,-267.46c0,0 44.8,196.23 67.6,284.98c5.8,22.53 4.7,29.4 5.5,35.69" id="path694"/>
    </g>
    <g id="g696" transform="translate(2.8421709430404007e-13,0) scale(1.2290199995040894) ">
     <path fill="#c65447" fill-rule="nonzero" d="m16300,5129.11c0,0 -4.6,20.1 -31,17.82c-26.4,-2.36 -174.9,-9.68 -174.9,-9.68c0,0 -28.7,0.48 -26,-17.91l231.9,9.77" id="path698"/>
    </g>
   </g>
  </g>
 </g>
</svg>