<svg width="800.45331" height="455.61334" xmlns="http://www.w3.org/2000/svg">
 <metadata id="metadata8">image/svg+xml</metadata>

 <g>
  <title>background</title>
  <rect fill="none" id="canvas_background" height="602" width="802" y="-1" x="-1"/>
 </g>
 <g>
  <title>Layer 1</title>
  <g id="g10" transform="matrix(1.3333333,0,0,-1.3333333,0,455.61333) ">
   <g id="g12" transform="translate(1,0) scale(0.10000000149011612) ">
    <path fill="#eeeeee" fill-rule="nonzero" d="m2720.8,24.2617c-7.68,87.9293 35.87,178.5003 109.33,227.4183c73.47,48.922 173.83,54.16 251.99,13.172c18.97,50.777 38.45,102.488 72.1,145c33.65,42.5 84.43,75.058 138.61,73.128l0,-458.7183l-572.03,0" id="path14"/>
    <path fill="#eeeeee" fill-rule="nonzero" d="m1214.86,1798.99l-292.251,-589.54l87.261,-3.31l-247.632,-468.46l130.067,0l-202.899,-416.2l1134.144,0l-249.72,416.2l119.66,5.199l-239.31,468.231l88.44,5.2l-327.76,582.68" id="path16"/>
    <path fill="#e3e3e2" fill-rule="nonzero" d="m1264.28,1115.11c1.44,-0.03 -1.05,-249.688 -5.56,-557.571c-4.51,-307.988 -9.33,-557.55853 -10.77,-557.539c-1.44,0.01953 1.05,249.629 5.56,557.621c4.51,307.879 9.33,557.509 10.77,557.489" id="path18"/>
    <path fill="#e3e3e2" fill-rule="nonzero" d="m1403.27,977.68c0.56,-0.418 -6.63,-10.899 -19.02,-27.25c-12.37,-16.36 -30.02,-38.508 -49.83,-62.692c-19.43,-23.508 -36.99,-44.758 -50.99,-61.699c-13.11,-15.738 -21.32,-25.398 -21.91,-24.949c-0.56,0.422 6.63,10.89 19.02,27.23c12.38,16.36 30.02,38.532 49.84,62.719c19.42,23.492 36.98,44.731 50.99,61.691c13.11,15.731 21.32,25.399 21.9,24.95" id="path20"/>
    <path fill="#e3e3e2" fill-rule="nonzero" d="m1261.52,801.09c-0.88,-1.141 -29.56,19.73 -64.04,46.601c-34.49,26.879 -61.73,49.59 -60.84,50.719c0.88,1.129 29.55,-19.73 64.04,-46.609c34.48,-26.879 61.73,-49.582 60.84,-50.711" id="path22"/>
    <path fill="#e3e3e2" fill-rule="nonzero" d="m1253.76,511.898c-0.51,-0.539 -8.51,6.141 -21.32,17.032c-12.81,10.89 -30.5,25.902 -50.36,42.101c-19.88,16.188 -38.16,30.489 -51.41,40.828c-13.25,10.352 -21.4,16.832 -20.97,17.442c0.4,0.57 9.31,-4.852 23.15,-14.469c13.85,-9.621 32.56,-23.523 52.52,-39.773c19.94,-16.258 37.32,-31.778 49.53,-43.399c12.22,-11.621 19.33,-19.262 18.86,-19.762" id="path24"/>
    <path fill="#e3e3e2" fill-rule="nonzero" d="m1415.37,690.66c0.28,-0.23 -1.59,-3.051 -5.23,-7.969c-3.6,-4.941 -9.13,-11.851 -16.16,-20.222c-14.03,-16.758 -34.49,-38.977 -57.53,-62.989c-23.05,-24.019 -43.85,-45.75 -58.53,-61.832c-14.72,-16.046 -23.55,-26.238 -24.16,-25.75c-0.28,0.223 1.59,3.043 5.23,7.973c3.61,4.938 9.14,11.84 16.16,20.211c14.03,16.77 34.49,38.988 57.54,63c23.04,24.008 43.85,45.738 58.52,61.816c14.73,16.051 23.55,26.25 24.16,25.762" id="path26"/>
    <path fill="#e3e3e2" fill-rule="nonzero" d="m3593.84,1128.15l1184.97,0l221.44,314.38l232.06,-323.26l272.73,4.35l-293.97,395.89l-1321.24,-5.49l-295.99,-385.87" id="path28"/>
    <path fill="#f8f8f9" fill-rule="nonzero" d="m4186.44,1123.62l0,-1102.0497l1183.3,0l0,1102.0497l-135.64,0l-233.85,318.91l-222.16,-314.09l-591.65,-4.82" id="path30"/>
    <path fill="#e3e3e2" fill-rule="nonzero" d="m4630.39,21.5703l-276.76,0l0,477.8007l276.76,0l0,-477.8007" id="path32"/>
    <path fill="#e3e3e2" fill-rule="nonzero" d="m5232.31,242.738l-436.02,0l0,270.082l436.02,0l0,-270.082" id="path34"/>
    <path fill="#eeeeee" fill-rule="nonzero" d="m4927.19,240.219l-10,0l0,272.601l10,0l0,-272.601" id="path36"/>
    <path fill="#eeeeee" fill-rule="nonzero" d="m5108.51,240.219l-10,0l0,272.601l10,0l0,-272.601" id="path38"/>
    <path fill="#eeeeee" fill-rule="nonzero" d="m5103.51,363.289l-181.32,0l0,10l181.32,0l0,-10" id="path40"/>
    <path fill="#e3e3e2" fill-rule="nonzero" d="m5232.31,783.301l-436.02,0l0,270.089l436.02,0l0,-270.089" id="path42"/>
    <path fill="#eeeeee" fill-rule="nonzero" d="m4927.19,780.781l-10,0l0,272.609l10,0l0,-272.609" id="path44"/>
    <path fill="#eeeeee" fill-rule="nonzero" d="m5108.51,780.781l-10,0l0,272.609l10,0l0,-272.609" id="path46"/>
    <path fill="#eeeeee" fill-rule="nonzero" d="m5103.51,903.859l-181.32,0l0,10l181.32,0l0,-10" id="path48"/>
    <path fill="#e3e3e2" fill-rule="nonzero" d="m4601.53,790.59l-274.98,0l0,260.36l274.98,0l0,-260.36" id="path50"/>
    <path fill="#e3e3e2" fill-rule="nonzero" d="m4186.44,21.5703l-480.28,0l0,1102.0497l480.28,0l0,-1102.0497" id="path52"/>
    <path fill="#eeeeee" fill-rule="nonzero" d="m4469.04,790.59l-10,0l0,260.36l10,0l0,-260.36" id="path54"/>
    <path fill="#eeeeee" fill-rule="nonzero" d="m4601.53,909.371l-274.98,0l0,10l274.98,0l0,-10" id="path56"/>
    <path fill="#e3e3e2" fill-rule="nonzero" d="m5057.87,1232.14c0,-32.2 -26.1,-58.3 -58.3,-58.3c-32.2,0 -58.31,26.1 -58.31,58.3c0,32.21 26.11,58.31 58.31,58.31c32.2,0 58.3,-26.1 58.3,-58.31" id="path58"/>
    <path fill="#f8f8f9" fill-rule="nonzero" d="m4583.66,1303.66l73.6,90.76l0,218.31l-154.09,0l0,-310.75l80.49,1.68" id="path60"/>
    <path fill="#eeeeee" fill-rule="nonzero" d="m4583.66,1303.66l0,309.07l73.6,0l0,-218.31l-73.6,-90.76" id="path62"/>
    <path fill="#eeeeee" fill-rule="nonzero" d="m4667.67,1612.73l-181.65,0l0,32.13l181.65,0l0,-32.13" id="path64"/>
    <path fill="#f8f8f9" fill-rule="nonzero" d="m4186.44,21.5703l-893.61,0l0,619.9607l893.61,0l0,-619.9607" id="path66"/>
    <path fill="#e3e3e2" fill-rule="nonzero" d="m3852.3,21.5703l-559.47,0l0,619.9607l559.47,0l0,-619.9607" id="path68"/>
    <path fill="#f8f8f9" fill-rule="nonzero" d="m3769.04,22.6602l-365.92,0l0,418.9998l365.92,0l0,-418.9998" id="path70"/>
    <path fill="#eeeeee" fill-rule="nonzero" d="m4137.23,383.332l-235.72,0l0,60.027l235.72,0l0,-60.027" id="path72"/>
    <path fill="#eeeeee" fill-rule="nonzero" d="m3593.84,1128.15l0,-31.92l1184.25,0l0,32.21l-1184.25,-0.29" id="path74"/>
    <path fill="#eeeeee" fill-rule="nonzero" d="m4778.09,1096.23l221.48,310.9l0.68,35.4l-221.44,-314.38l-0.72,-31.92" id="path76"/>
    <path fill="#eeeeee" fill-rule="nonzero" d="m5234.1,1123.62l0,-20.59l265.24,0l0,20.59l-265.24,0" id="path78"/>
    <path fill="#e3e3e2" fill-rule="nonzero" d="m4536.01,535.379l-97.86,0l0,37.211l97.86,0l0,-37.211" id="path80"/>
    <path fill="#f03658" fill-rule="nonzero" d="m2938.68,1559.42c-388.22,0 -702.94,314.72 -702.94,702.96c0,388.21 314.72,702.94 702.94,702.94c388.23,0 702.94,-314.73 702.94,-702.94c0,-388.24 -314.71,-702.96 -702.94,-702.96m742.32,1362.77c-221.48,304.64 -543.55,446.66 -879.56,446.65c0,0 -822.94,0.01 -1066.65,-736.69c-89.81,-271.51 -69.92,-566.35 39.06,-830.74c37.69,-91.43 87.76,-190.59 153.75,-285.9c212.48,-306.92 873.84,-1145.049 873.84,-1145.049l143.75,0c184.6,256.379 649.34,1108.079 788.51,1381.139c174.78,342.89 201.64,820.73 -52.7,1170.59" id="path84"/>
    <path fill="#a02232" fill-rule="nonzero" d="m2941.61,370.461l-140.17,0c0,0 -661.36,838.129 -873.84,1145.049c-65.99,95.31 -116.06,194.47 -153.75,285.9c-62.47,151.56 -95.67,313.13 -95.71,474.57c-0.02,120.18 18.32,240.3 56.65,356.17c243.71,736.7 1066.65,736.69 1066.65,736.69c41.18,0 82.14,-2.14 122.74,-6.44c-132.3,-6.26 -824.62,-70.81 -1044.67,-736.02c-89.81,-271.5 -69.92,-566.34 39.06,-830.74c37.68,-91.42 87.76,-190.58 153.74,-285.89c202.18,-292.03 810.72,-1064.969 869.3,-1139.289m-3.58,1183.189c-364.47,0 -662.57,272.75 -697.84,629.19c39.19,-347.98 332.41,-619.06 689.82,-623.37l0.01,0c0.47,-0.01 0.93,-0.01 1.41,-0.02c0.03,0 0.07,0 0.1,0c0.18,0 0.39,0 0.58,0c0.06,0 0.08,0 0.14,0c0.19,-0.01 0.35,-0.01 0.54,-0.01c0.05,0 0.1,0 0.15,0c0.24,0 0.44,0 0.67,0c0.02,0 0.04,0 0.06,-0.01c0.21,0 0.39,0 0.61,0c0.06,0 0.11,0 0.17,0c0.15,0 0.35,0 0.5,0c0.07,0 0.12,0 0.2,0c0.19,0 0.33,-0.01 0.52,-0.01c0.06,0 0.09,0 0.15,0c0.21,0 0.44,0 0.65,0c0.06,0 0.11,0 0.17,0c0.17,0 0.32,0 0.48,0c0.08,0 0.16,0 0.24,0c0.17,0 0.29,0 0.46,0c0.06,0 0.14,0 0.2,0c0.21,0 0.45,0 0.66,0l0,0c388.23,0 702.94,314.72 702.94,702.96l0,0l0,0l0,0l0,0l0,0l0,0c0,41.67 -3.62,82.48 -10.58,122.17c7.61,-41.49 11.57,-84.25 11.54,-127.94c-0.29,-389.47 -315.67,-702.1 -702.94,-702.95c-0.52,-0.01 -1.09,-0.01 -1.61,-0.01" id="path86"/>
    <path fill="#f03658" fill-rule="nonzero" d="m2939.64,1552.66c-389.95,-0.86 -704.4,310.55 -702.94,702.95c1.44,388.22 314.72,702.94 702.94,702.94c388.22,0 703.23,-314.72 702.94,-702.94c-0.29,-389.47 -315.67,-702.1 -702.94,-702.95m886.08,1362.76c-221.49,304.65 -543.55,446.66 -879.56,446.65c0,0 -822.95,0.01 -1066.65,-736.69c-89.81,-271.5 -69.92,-566.34 39.06,-830.74c37.68,-91.42 87.76,-190.58 153.74,-285.89c212.49,-306.93 873.85,-1145.051 873.85,-1145.051c0,0 764.08,1051.191 932.26,1381.141c174.78,342.88 201.64,820.73 -52.7,1170.58" id="path88"/>
    <path fill="#f03658" fill-rule="nonzero" d="m2938.68,2965.32c-305.84,0 -565.93,-195.39 -662.6,-468.09c94.61,208.68 304.6,353.91 548.64,353.91c332.62,0 602.26,-269.64 602.26,-602.26c0,-332.62 -269.64,-602.27 -602.26,-602.27c-193.13,0 -364.9,91.02 -475.11,232.38c125.43,-192.34 342.33,-319.57 589.07,-319.57c388.23,0 702.94,314.72 702.94,702.96c0,388.21 -314.71,702.94 -702.94,702.94" id="path90"/>
    <path fill="#a02232" fill-rule="nonzero" d="m2938.68,1559.42c-0.23,0 -0.43,0 -0.66,0c-0.06,0 -0.14,0 -0.2,0c-0.15,0 -0.31,0 -0.46,0c-0.08,0 -0.16,0 -0.24,0c-0.16,0 -0.32,0 -0.48,0c-0.06,0 -0.11,0 -0.17,0c-0.21,0 -0.44,0 -0.65,0c-0.06,0 -0.09,0 -0.15,0c-0.16,0 -0.36,0.01 -0.52,0.01c-0.08,0 -0.13,0 -0.2,0c-0.17,0 -0.33,0 -0.5,0c-0.06,0 -0.11,0 -0.17,0c-0.2,0 -0.42,0 -0.61,0c-0.02,0.01 -0.04,0.01 -0.06,0.01c-0.22,0 -0.44,0 -0.67,0c-0.05,0 -0.1,0 -0.15,0c-0.18,0 -0.36,0 -0.54,0.01c-0.06,0 -0.08,0 -0.14,0c-0.2,0 -0.39,0 -0.58,0c-0.03,0 -0.07,0 -0.1,0c-0.47,0.01 -0.94,0.01 -1.41,0.02l-0.01,0c-243.15,2.94 -456.44,129.44 -580.4,319.52c110.21,-141.36 281.98,-232.38 475.11,-232.38c332.62,0 602.26,269.65 602.26,602.27l0,0l0,0c0,332.62 -269.64,602.26 -602.26,602.26c-244.04,0 -454.03,-145.23 -548.64,-353.91c96.67,272.7 356.76,468.09 662.6,468.09c388.23,0 702.94,-314.73 702.94,-702.94c0,-388.24 -314.71,-702.96 -702.94,-702.96" id="path92"/>
    <path fill="#f9ad95" fill-rule="nonzero" d="m4340.37,1940.06c-28.34,19.3 -62.62,27.74 -96.69,23.86c-57.62,-6.57 -141.06,-15.04 -141.06,-15.04l0.3,-2.74l-403.33,-24.83l-123.43,250.57l-187.19,-123.32c0,0 24.61,-39.44 129.51,-233.15c41.93,-77.44 127.81,-120.54 214.94,-107.79l474.9,69.49l0,0.91c49.04,2.77 102.23,7.35 109.93,14.38c14.71,13.46 28.14,62.46 28.14,62.46c0,0 84.57,-50.35 100.93,-51.45c16.35,-1.12 19.25,12.49 29.43,26.91c6.94,9.84 -80.29,71.55 -136.38,109.74" id="path94"/>
    <path fill="#365462" fill-rule="nonzero" d="m3600.98,2188.24c0,0 -78.39,150.9 -150.22,293.37c-88.24,174.96 -282.78,209.96 -282.78,209.96l-281.81,37c0,0 -235.5,106.57 -454.98,-157.91l-180.43,-201.16l38.31,-34.44l178.56,-160.55l35.31,-31.74l80.81,83.19l-37.57,-210.77l-66.3,-293.79l0.2,-0.18l143.29,17.31l96.97,592.55l546.33,-43.58l-42.85,-373.6c8.77,1.34 74.88,14.37 96.36,104.19c8.45,35.33 5.75,65.17 0.47,87.14l31.57,-80.88l248.76,163.89" id="path96"/>
    <path fill="#1d2a30" fill-rule="nonzero" d="m2720.34,2331.49l-96.97,-592.55l-143.29,-17.31c123.12,-106.13 283.3,-170.45 458.6,-170.45c87.58,0 171.36,16.15 248.7,45.41l36.44,317.72l42.85,373.6l-546.33,43.58" id="path98"/>
    <path fill="#1d2a30" fill-rule="nonzero" d="m2752.73,2758.08l-11.87,-481.31l91.16,-14.4l12.23,487.72c0,0 -32.02,15.06 -91.52,7.99" id="path100"/>
    <path fill="#1d2a30" fill-rule="nonzero" d="m3138.32,2274.18l75.06,413.39c4.31,4.61 65.96,-17.52 84.51,-38.57l-67.41,-383.5l-92.16,8.68" id="path102"/>
    <path fill="#365462" fill-rule="nonzero" d="m2835.33,2333.17c0.35,0.02 0.85,-2.91 1.36,-8.25c0.45,-5.33 1.07,-13.12 0.26,-22.82c-0.81,-9.59 -3.41,-21.59 -11.35,-32.32c-3.91,-5.3 -9.19,-10.29 -15.92,-13.4c-6.7,-3.12 -14.66,-4.15 -22.3,-2.7c-15.37,2.99 -27.37,13.11 -34.22,24.29c-6.84,11.33 -9.16,23.09 -10.08,32.69c-0.87,9.67 -0.4,17.48 0.06,22.82c0.51,5.35 1.09,8.27 1.43,8.25c0.96,-0.02 -0.17,-11.96 2.17,-30.64c1.33,-9.23 3.98,-20.32 10.48,-30.57c6.41,-10.04 17.61,-19.14 31.08,-21.71c13.63,-2.85 26.45,4.2 33.48,13.86c7.42,9.58 10.27,20.62 11.5,29.84c2.09,18.67 1.02,30.68 2.05,30.66" id="path104"/>
    <path fill="#365462" fill-rule="nonzero" d="m2781.33,2290.64c-10.69,4.25 -15.9,16.36 -11.65,27.04c4.25,10.69 16.36,15.9 27.05,11.65c10.68,-4.25 15.9,-16.36 11.64,-27.04c-4.25,-10.69 -16.36,-15.9 -27.04,-11.65" id="path106"/>
    <path fill="#365462" fill-rule="nonzero" d="m3208.87,2288.02c0,-11.5 -9.33,-20.82 -20.83,-20.82c-11.49,0 -20.82,9.32 -20.82,20.82c0,11.5 9.33,20.83 20.82,20.83c11.5,0 20.83,-9.33 20.83,-20.83" id="path108"/>
    <path fill="#365462" fill-rule="nonzero" d="m3236.84,2302.44c0.5,-0.12 -0.15,-9.54 -4.77,-24.33c-2.45,-7.29 -6.44,-16.06 -13.88,-23.63c-7.19,-7.71 -19.25,-13.02 -31.63,-11.64c-12.32,1.25 -23.09,7.45 -30.02,15.48c-6.93,8.07 -10.26,17.23 -11.67,24.88c-1.46,7.71 -1.09,14.07 -0.53,18.34c0.63,4.28 1.46,6.54 1.78,6.48c0.95,-0.06 -1.12,-9.59 2.34,-24.04c1.78,-7.11 5.24,-15.38 11.66,-22.47c6.35,-6.98 16.07,-12.39 26.93,-13.48c10.91,-1.14 21.03,3.12 27.77,9.87c6.9,6.65 11.01,14.62 13.81,21.49c5.32,13.95 7.32,23.3 8.21,23.05" id="path110"/>
    <path fill="#365462" fill-rule="nonzero" d="m2780,2104.8c-0.71,0.08 -0.97,4.04 -0.81,10.33c0.08,3.15 0.27,6.88 0.55,11.02c0.17,2.22 0.34,4.36 0.5,6.49l0.31,3.43l0.17,1.76l0.08,0.88l0.05,0.45l0.02,0.22l0.01,0.11l0.01,0.06l0,0.03c-2.58,-2.31 3.51,3.16 2.89,2.59l0.02,0c19.21,-2.07 34.65,-4.91 34.49,-6.34c-0.15,-1.43 -15.85,-0.91 -35.05,1.16l-0.02,0c-0.63,-0.56 5.45,4.9 2.88,2.59l0,-0.03l-0.01,-0.06l-0.01,-0.11l-0.02,-0.23l-0.05,-0.45l-0.09,-0.9l-0.19,-1.78l-0.39,-3.48c-0.26,-2.17 -0.53,-4.33 -0.81,-6.58c-0.55,-4.19 -1.11,-7.95 -1.67,-11.1c-1.1,-6.3 -2.14,-10.14 -2.86,-10.06" id="path112"/>
    <path fill="#365462" fill-rule="nonzero" d="m2765.41,1966.95c-1.43,0.16 -0.95,15.7 1.08,34.73c2.02,19.04 4.82,34.33 6.25,34.18c1.43,-0.15 0.95,-15.7 -1.08,-34.73c-2.02,-19.02 -4.82,-34.33 -6.25,-34.18" id="path114"/>
    <path fill="#365462" fill-rule="nonzero" d="m2785.67,1847.66c-0.64,-1.29 -15.19,4.64 -32.5,13.23c0.3,-0.57 -2.71,4.95 -1.43,2.62l0,0.02l0,0.03l0.01,0.06l0.01,0.1l0.03,0.23l0.04,0.45l0.1,0.89l0.2,1.77l0.41,3.45c0.28,2.14 0.56,4.29 0.85,6.51c0.58,4.15 1.17,7.88 1.74,11.01c1.14,6.24 2.21,10.07 2.92,9.99c0.71,-0.07 0.95,-4.04 0.74,-10.39c-0.11,-3.17 -0.32,-6.94 -0.63,-11.11c-0.19,-2.25 -0.37,-4.4 -0.55,-6.56l-0.33,-3.45l-0.18,-1.77l-0.09,-0.89l-0.05,-0.45l-0.02,-0.23l-0.01,-0.11l-0.01,-0.06l0,-0.03l0,-0.01c1.27,-2.34 -1.75,3.17 -1.43,2.6c17.31,-8.6 30.82,-16.61 30.18,-17.9" id="path116"/>
    <path fill="#365462" fill-rule="nonzero" d="m2878.08,1801.77c-0.64,-1.28 -11.5,2.81 -24.26,9.15c-12.76,6.33 -22.58,12.51 -21.94,13.8c0.64,1.28 11.5,-2.8 24.26,-9.14c12.75,-6.34 22.58,-12.52 21.94,-13.81" id="path118"/>
    <path fill="#365462" fill-rule="nonzero" d="m2988.07,1776.42c0.54,-1.34 -13.55,-8.3 -31.46,-15.57c-4.27,0.16 -1.19,0.05 -2.14,0.09l-0.02,0l-0.02,0.02l-0.05,0.02l-0.1,0.05l-0.2,0.11l-0.41,0.19l-0.81,0.4l-1.58,0.8l-3.1,1.58c-1.91,1.01 -3.83,2.02 -5.81,3.06c-3.7,1.98 -6.99,3.83 -9.72,5.45c-5.46,3.24 -8.68,5.57 -8.36,6.21c0.32,0.65 4.12,-0.52 10,-2.91c2.94,-1.2 6.4,-2.7 10.21,-4.44c2.04,-0.96 3.99,-1.88 5.95,-2.8l3.13,-1.5l1.6,-0.79l0.8,-0.39l0.41,-0.21l0.2,-0.09l0.1,-0.05l0.06,-0.03l0.02,-0.01l0.01,-0.01c-0.95,0.04 2.14,-0.08 -2.12,0.08c17.91,7.26 32.87,12.07 33.41,10.74" id="path120"/>
    <path fill="#365462" fill-rule="nonzero" d="m3062.79,1806.71c0.54,-1.34 -7.39,-5.81 -17.7,-9.99c-10.32,-4.19 -19.12,-6.49 -19.66,-5.16c-0.54,1.33 7.39,5.8 17.7,9.99c10.32,4.18 19.12,6.49 19.66,5.16" id="path122"/>
    <path fill="#365462" fill-rule="nonzero" d="m3136.17,1869.82c1.43,-0.15 0.98,-15.86 -1,-35.09c-3.22,-4.29 -0.9,-1.19 -1.62,-2.15l-0.01,0l-0.03,-0.01l-0.05,-0.02l-0.11,-0.05l-0.2,-0.08l-0.42,-0.17l-0.84,-0.34l-1.65,-0.66l-3.23,-1.26c-2.03,-0.77 -4.05,-1.54 -6.15,-2.33c-3.93,-1.45 -7.5,-2.69 -10.52,-3.66c-6.05,-1.95 -9.93,-2.82 -10.19,-2.15c-0.27,0.67 3.11,2.74 8.81,5.56c2.84,1.41 6.27,3 10.1,4.7c2.06,0.89 4.04,1.75 6.03,2.6l3.2,1.35l1.64,0.68l0.83,0.33l0.42,0.17l0.22,0.09l0.1,0.04l0.06,0.02l0.02,0.01l0.01,0.01c-0.71,-0.96 1.63,2.14 -1.6,-2.14c1.99,19.22 4.75,34.69 6.18,34.55" id="path124"/>
    <path fill="#365462" fill-rule="nonzero" d="m3149.53,1999.39c1.44,-0.14 1.1,-14.77 -0.74,-32.65c-1.84,-17.9 -4.5,-32.28 -5.94,-32.13c-1.42,0.14 -1.09,14.76 0.76,32.66c1.84,17.89 4.5,32.27 5.92,32.12" id="path126"/>
    <path fill="#365462" fill-rule="nonzero" d="m3125.01,2102.75c0.16,1.43 15.86,0.91 35.08,-1.16c4.62,-5.71 1.28,-1.59 2.32,-2.87l0,-0.02l-0.01,-0.02l0,-0.06l-0.02,-0.11l-0.02,-0.23l-0.05,-0.45l-0.09,-0.89l-0.2,-1.77l-0.4,-3.45c-0.26,-2.14 -0.53,-4.29 -0.82,-6.52c-0.56,-4.15 -1.14,-7.88 -1.7,-11.01c-1.11,-6.25 -2.16,-10.08 -2.88,-10.01c-0.71,0.08 -0.96,4.04 -0.78,10.39c0.09,3.17 0.29,6.94 0.59,11.13c0.17,2.23 0.35,4.39 0.53,6.54l0.31,3.47l0.17,1.76l0.09,0.9l0.05,0.45l0.02,0.22l0.01,0.11l0.01,0.06l0,0.03l0,0.02c1.04,-1.27 -2.3,2.86 2.31,-2.85c-19.21,2.07 -34.67,4.91 -34.52,6.34" id="path128"/>
    <path fill="#365462" fill-rule="nonzero" d="m3002.33,2115.98c0.15,1.43 14.01,1.11 30.94,-0.71c16.95,-1.83 30.55,-4.47 30.4,-5.9c-0.15,-1.43 -14.01,-1.11 -30.95,0.72c-16.94,1.82 -30.55,4.46 -30.39,5.89" id="path130"/>
    <path fill="#365462" fill-rule="nonzero" d="m2879.64,2129.22c0.15,1.43 14.01,1.1 30.95,-0.72c16.94,-1.83 30.55,-4.47 30.39,-5.9c-0.15,-1.43 -14.01,-1.11 -30.95,0.72c-16.94,1.82 -30.54,4.47 -30.39,5.9" id="path132"/>
    <path fill="#f9ad95" fill-rule="nonzero" d="m2236.66,2298.67c-0.61,-12.02 -0.92,-24.12 -0.92,-36.29c0,-48.45 4.9,-95.75 14.23,-141.43l0.31,-1.37c1.19,-5.8 2.64,-11.51 3.98,-17.26c5.49,-22.59 11.93,-44.88 19.12,-66.83c0.93,-2.74 1.81,-5.5 2.78,-8.22c25.84,5.76 100.65,70.53 186.77,151.47l-178.44,160.43c-24.95,-24.91 -39.73,-37.69 -47.83,-40.5" id="path134"/>
    <path fill="#1d2a30" fill-rule="nonzero" d="m3362.86,3337.24c6.21,-69.06 84.99,-127.34 154.3,-125.18c38.24,1.19 76.91,18.19 113.65,7.56c61.61,-17.83 86.5,-103.76 149.57,-115.28c47.18,-8.61 90.76,29.63 138.65,32.2c35.19,1.89 68.39,-15.7 97.55,-35.51c29.14,-19.82 57.05,-42.73 90.43,-54c33.39,-11.27 63.97,8.76 97.66,19.04c8.37,-21.47 13.79,-47.8 24.54,-70.55c10.75,-22.74 23.73,-63.27 4.65,-72.09c0,0 -53.09,-27.51 -83.8,-26.02c24.39,-25.25 63.01,-35.71 96.8,-26.21c8.51,-51.36 14.92,-110.61 -19.85,-149.36c-15.46,-17.25 -37.33,-27.7 -59.76,-33.49c-111.47,-28.77 -227.9,49.1 -341.04,27.85c-46.44,-8.73 -88.91,-33.79 -135.77,-39.92c-46.11,-6.04 -94.47,7.61 -130.62,36.87c-44.6,36.1 -75.31,96.5 -131.91,105.94c-25.1,4.2 -50.54,-3.04 -75.06,-9.92c-24.5,-6.88 -50.23,-13.54 -75.12,-8.25c-24.9,5.29 -48.35,26.51 -47.21,51.94" id="path136"/>
    <path fill="#f9ad95" fill-rule="nonzero" d="m3141.3,2666.1c12.49,69.67 26.93,142.78 26.93,142.78c0,0 92.42,-0.9 131.66,112.98c37.42,108.61 64.46,369.88 64.46,369.88c-119.96,75.47 -279.25,67.35 -389.64,-19.86l-92.13,-567.52c-10.69,-65.88 37.44,-127.55 108.07,-138.46l0,0c71.34,-11.02 138.76,33.82 150.65,100.2" id="path138"/>
    <path fill="#1d2a30" fill-rule="nonzero" d="m3295.62,3096.06c-1.12,-7.99 -8.8,-13.63 -17.16,-12.61c-8.35,1.01 -14.22,8.28 -13.11,16.27c1.12,7.99 8.8,13.63 17.14,12.62c8.36,-1.01 14.24,-8.3 13.13,-16.28" id="path140"/>
    <path fill="#1d2a30" fill-rule="nonzero" d="m3322.94,3108.59c-2.2,-1.63 -12.11,8.8 -28.29,11.6c-16.11,3.04 -29.44,-3.19 -30.85,-0.9c-0.71,1.03 1.81,4.22 7.65,7.08c5.74,2.84 15.06,4.96 25.12,3.15c10.06,-1.83 17.88,-7.03 22.09,-11.68c4.29,-4.7 5.35,-8.54 4.28,-9.25" id="path142"/>
    <path fill="#1d2a30" fill-rule="nonzero" d="m3129.59,3122.35c-1.12,-7.98 -8.81,-13.62 -17.17,-12.6c-8.33,1.01 -14.21,8.29 -13.09,16.27c1.11,7.98 8.8,13.63 17.15,12.62c8.36,-1.01 14.23,-8.3 13.11,-16.29" id="path144"/>
    <path fill="#1d2a30" fill-rule="nonzero" d="m3153.2,3132.43c-2.21,-1.63 -12.13,8.8 -28.29,11.61c-16.12,3.03 -29.45,-3.2 -30.86,-0.91c-0.71,1.03 1.79,4.23 7.65,7.08c5.74,2.85 15.06,4.96 25.12,3.15c10.07,-1.83 17.88,-7.03 22.09,-11.68c4.29,-4.69 5.35,-8.53 4.29,-9.25" id="path146"/>
    <path fill="#1d2a30" fill-rule="nonzero" d="m3190.76,3002.18c0.08,0.94 10.43,0.91 27.09,0.12c4.2,-0.3 8.26,-0.17 9.45,2.52c1.5,2.81 0.55,7.57 -0.6,12.73c-2.13,10.67 -4.34,21.86 -6.68,33.59c-9.07,47.74 -14.86,86.72 -12.94,87.06c1.94,0.35 10.85,-38.07 19.93,-85.82c2.12,-11.75 4.18,-22.96 6.12,-33.68c0.73,-4.97 2.49,-10.77 -0.71,-16.59c-1.66,-2.89 -5.08,-4.59 -7.86,-4.84c-2.78,-0.34 -5.11,0.03 -7.18,0.26c-16.55,2.01 -26.72,3.73 -26.62,4.65" id="path148"/>
    <path fill="#f6865e" fill-rule="nonzero" d="m3168.23,2808.88c0,0 -79.72,8.8 -149.55,69.5c0,0 23.9,-87.2 143.09,-96.88l6.46,27.38" id="path150"/>
    <path fill="#f6865e" fill-rule="nonzero" d="m3177.05,2964.42c-4.46,8.71 -13.9,14.73 -24.21,15.42c-7.15,0.48 -14.83,-1.65 -20.1,-6.61c-5.28,-4.96 -7.59,-12.92 -4.68,-19.05c3.28,-6.91 12.15,-9.93 20.25,-9.09c8.11,0.83 15.65,4.74 22.85,8.69c1.99,1.09 4.03,2.24 5.45,3.97c1.43,1.73 2.1,4.19 1.04,6.02" id="path152"/>
    <path fill="#1d2a30" fill-rule="nonzero" d="m3141.2,2999.38c2.66,-0.31 -0.4,-17.87 12.43,-32.97c12.79,-15.14 31.85,-16.46 31.55,-18.94c0.06,-1.14 -4.77,-2.67 -12.7,-1.5c-7.79,1.1 -18.67,5.58 -26.51,14.82c-7.82,9.26 -9.97,20.14 -9.3,27.45c0.62,7.45 3.35,11.46 4.53,11.14" id="path154"/>
    <path fill="#1d2a30" fill-rule="nonzero" d="m3053.96,3355.61c31.3,-69.06 132.76,-153.08 211.11,-182.9c-7.12,14.25 -51.16,54.33 -58.28,68.58c31.6,-34.37 77.3,-80.99 125.6,-92.64c5.71,-1.38 11.96,-2.54 17.25,-0.54c7.21,2.72 9.96,10.13 11.98,16.76c8.53,27.99 15.77,77.36 16.56,106.58c0.79,29.22 -6.94,59.88 -27.97,83.52c-26.71,30.02 -70.31,44.38 -112.26,53.32c-35.17,7.5 -71.99,12.26 -106.69,5.59c-34.69,-6.68 -67.07,-26.68 -77.49,-56.1" id="path156"/>
    <path fill="#1d2a30" fill-rule="nonzero" d="m2867.13,3095.52c-0.2,31.37 0.51,60.97 3.02,80.35c7.9,60.98 26.92,282.69 231.56,225.64l-21.79,-56.79c0,0 15.73,-142.69 -89.31,-219.32c0,0 0.45,-142.42 -72.31,-193.81c0,0 -50.74,96.59 -51.17,163.93" id="path158"/>
    <path fill="#f9ad95" fill-rule="nonzero" d="m2994.98,3135.07c-12.1,4.63 -25.4,6.62 -38.14,4.23c-12.73,-2.39 -24.8,-9.42 -32.01,-20.19c-7.23,-10.79 -9.14,-24.59 -6.92,-37.4c2.22,-12.79 8.26,-24.67 15.79,-35.26c5.4,-7.6 11.81,-14.8 20.09,-19.1c8.28,-4.3 18.75,-5.25 26.8,-0.55" id="path160"/>
    <path fill="#f6865e" fill-rule="nonzero" d="m2974.68,3060.34c1.35,-0.72 -5.43,-7.34 -16.34,-2.24c-5.26,2.42 -9.78,8.22 -11.98,14.86c-2.19,6.73 -3.13,13.85 -2.58,21.89c0.59,7.95 3.83,15.95 9.19,21.12c5.17,5.31 12.51,7.69 18.17,6.82c11.83,-1.81 14.04,-10.62 12.67,-10.62c-1.12,-0.79 -4.94,4.22 -12.99,3.72c-7.63,-0.05 -16.68,-8.95 -17.32,-21.89c-0.87,-13.14 2.01,-25.81 8.35,-29.96c6.5,-4.9 12.23,-2.53 12.83,-3.7" id="path162"/>
    <path fill="#1d2a30" fill-rule="nonzero" d="m4179.75,3125.41c0,0 -1.2,-3.26 -5.51,-8.15c-4.31,-4.79 -12.28,-10.92 -24.35,-14.03c-11.9,-3.19 -27.88,-3.4 -44.33,3.11c-16.56,6.18 -32.88,18.05 -50.05,31.39c-17.16,13 -36.39,28.37 -61.03,33.74c-12.22,2.28 -25.39,1.99 -38.31,-1.66c-12.95,-3.47 -25.67,-9.25 -38.47,-15.69c-12.82,-6.43 -25.76,-13.64 -39.67,-19.87c-13.86,-6.17 -28.99,-11.48 -45.22,-12.05c-16.19,-0.7 -32.84,4.2 -46.6,13.58c-13.86,9.33 -24.93,22.18 -34.98,35.51c-20.02,26.66 -36.18,55.52 -60.65,74.46c-12.04,9.51 -26.28,15.34 -40.88,17.17c-14.58,2.07 -29.24,0.65 -43.25,-1.92c-28.09,-5.18 -54.28,-14.07 -80.05,-17.32c-25.8,-3.06 -50.34,-0.36 -71.34,6.18c-42.48,12.83 -70.48,37.31 -86.25,55.69c-15.71,18.92 -20.8,31.69 -20.8,31.69c0.08,0.05 0.59,-0.63 1.5,-2.01c1.04,-1.64 2.33,-3.66 3.91,-6.15c3.43,-5.38 8.92,-13.09 16.92,-22.19c16.05,-17.76 43.99,-41.39 85.76,-53.5c20.64,-6.18 44.64,-8.59 69.73,-5.43c25.19,3.34 51.18,12.33 79.76,17.76c14.26,2.67 29.4,4.24 44.78,2.13c15.37,-1.86 30.65,-8.08 43.3,-18.03c25.67,-19.87 41.94,-49.15 61.72,-75.4c9.9,-13.14 20.65,-25.54 33.71,-34.34c12.98,-8.84 28.36,-13.38 43.53,-12.79c15.21,0.5 29.78,5.49 43.38,11.51c13.65,6.06 26.58,13.18 39.54,19.61c12.95,6.44 25.98,12.3 39.46,15.83c13.44,3.72 27.46,3.99 40.35,1.45c26,-5.92 45.35,-21.88 62.42,-35.05c17.01,-13.53 32.86,-25.34 48.83,-31.59c15.83,-6.55 31.16,-6.64 42.78,-3.86c11.76,2.72 19.65,8.36 24.09,12.79c4.44,4.54 6.01,7.61 6.27,7.43" id="path164"/>
    <path fill="#365462" fill-rule="nonzero" d="m1876.46,1138.98l-181.38,-365.89l54.16,-2.059l-153.69,-290.742l80.72,0l-125.93,-258.309l703.9,0l-154.98,258.309l74.26,3.231l-148.53,290.589l54.89,3.243l-203.42,361.628" id="path166"/>
    <path fill="#1d2a30" fill-rule="nonzero" d="m1907.13,714.531c1.44,-0.031 0.33,-154.98 -2.46,-346.062c-2.8,-191.149 -6.23,-346.0393 -7.67,-346.0198c-1.44,0.0196 -0.34,154.9488 2.46,346.1018c2.8,191.078 6.23,346 7.67,345.98" id="path168"/>
    <path fill="#1d2a30" fill-rule="nonzero" d="m1993.4,620.48c0.53,-0.398 -3.36,-6.742 -10.86,-16.082c-7.46,-9.367 -18.74,-21.488 -31.6,-34.296c-12.86,-12.821 -24.41,-24.391 -32.51,-33.063c-8.12,-8.617 -13.02,-14.117 -13.64,-13.648c-0.52,0.398 3.37,6.73 10.86,16.078c7.46,9.363 18.74,21.48 31.6,34.301c12.87,12.82 24.42,24.402 32.51,33.05c8.12,8.621 13.02,14.129 13.64,13.66" id="path170"/>
    <path fill="#1d2a30" fill-rule="nonzero" d="m1905.42,519.641c-0.89,-1.129 -18.95,11.468 -40.35,28.148c-21.41,16.68 -38.04,31.121 -37.16,32.25c0.89,1.133 18.95,-11.457 40.36,-28.141c21.4,-16.679 38.03,-31.128 37.15,-32.257" id="path172"/>
    <path fill="#1d2a30" fill-rule="nonzero" d="m1900.6,340.16c-1.02,-1.09 -20.47,15.891 -45.11,35.93c-24.61,20.101 -45.15,35.711 -44.3,36.93c0.78,1.152 22.8,-12.649 47.59,-32.891c24.82,-20.199 42.79,-38.981 41.82,-39.969" id="path174"/>
    <path fill="#1d2a30" fill-rule="nonzero" d="m2000.91,451.109c1.3,-0.988 -19.33,-27.75 -48.27,-57.277c-13.5,-14.102 -25.74,-26.883 -36.52,-38.152c-9.26,-9.828 -14.92,-15.989 -15.52,-15.52c-1.31,0.981 19.32,27.731 48.27,57.27c13.51,14.109 25.74,26.89 36.52,38.152c9.26,9.816 14.92,15.988 15.52,15.527" id="path176"/>
   </g>
  </g>
 </g>
</svg>